<?xml version="1.0" encoding="utf-8"?>
<!-- Generator: Adobe Illustrator 15.0.0, SVG Export Plug-In  -->
<!DOCTYPE svg PUBLIC "-//W3C//DTD SVG 1.1//EN" "http://www.w3.org/Graphics/SVG/1.1/DTD/svg11.dtd" [
	<!ENTITY ns_flows "http://ns.adobe.com/Flows/1.0/">
]>
<svg version="1.1"
	 xmlns="http://www.w3.org/2000/svg" xmlns:xlink="http://www.w3.org/1999/xlink" xmlns:a="http://ns.adobe.com/AdobeSVGViewerExtensions/3.0/"
	 x="0px" y="0px" width="100px" height="100px" viewBox="-1.976 -2.049 100 100" enable-background="new -1.976 -2.049 100 100"
	 xml:space="preserve">
<defs>
</defs>
<path d="M16.049,95.902h63.998v-7.977H16.049V95.902z M95.805,50.576L83.841,18.578
	c-0.487-1.362-1.652-2.237-3.112-2.529c-0.195-0.097-0.389-0.097-0.682-0.097H16.049c-0.292,0-0.487,0-0.681,0.097
	c-1.362,0.194-2.626,1.167-3.113,2.529L0.292,50.576C0.098,51.063,0,51.453,0,51.94C0,60.789,7.198,67.89,15.951,67.89
	c8.852,0,15.952-7.196,15.952-15.949c0-0.487-0.097-0.974-0.292-1.364l-9.726-26.649h22.176v51.937H32.097v7.977h32.001v-7.977
	H52.133V23.927H74.31L64.389,50.48c-0.195,0.486-0.291,0.873-0.291,1.36c0,8.853,7.196,15.953,15.949,15.953
	C88.9,67.794,96,60.595,96,51.841C96,51.453,95.903,50.967,95.805,50.576z M24.025,52.618c-0.292,4.085-3.794,7.297-7.976,7.297
	c-4.183,0-7.685-3.212-7.976-7.297l7.976-21.3L24.025,52.618z M80.047,59.915c-4.181,0-7.684-3.212-7.975-7.297l7.975-21.3
	l7.977,21.3C87.635,56.703,84.232,59.915,80.047,59.915z M48.049,7.976c2.238,0,3.987-1.751,3.987-3.988
	C52.036,1.75,50.287,0,48.049,0c-2.237,0-3.988,1.75-3.988,3.987C44.061,6.225,45.812,7.976,48.049,7.976z"/>
</svg>
