<?xml version="1.0" encoding="utf-8"?>
<!-- Generator: Adobe Illustrator 15.0.0, SVG Export Plug-In . SVG Version: 6.00 Build 0)  -->
<!DOCTYPE svg PUBLIC "-//W3C//DTD SVG 1.1//EN" "http://www.w3.org/Graphics/SVG/1.1/DTD/svg11.dtd">
<svg version="1.1" id="Layer_1" xmlns="http://www.w3.org/2000/svg" xmlns:xlink="http://www.w3.org/1999/xlink" x="0px" y="0px"
	 width="100px" height="100px" viewBox="0 0 100 100" enable-background="new 0 0 100 100" xml:space="preserve">
<g>
	<path stroke="#000" stroke-width="0.48" stroke-miterlimit="10" d="M49.794,65.912
		c-1.785,0.544-3.475,1.363-4.975,2.481c-2.753-2.05-6.113-3.2-9.6-3.2h-22.4v-44.8h22.4c3.519,0,6.4,2.879,6.4,6.4v25.6
		c0,1.759,1.441,3.2,3.2,3.2s3.2-1.44,3.2-3.2v-25.6c0-3.521,2.881-6.4,6.4-6.4h22.4v15.291c2.237,0.403,4.384,1.122,6.4,2.134
		V13.993h-28.8c-3.81,0-7.263,1.695-9.6,4.352c-2.337-2.656-5.791-4.352-9.6-4.352h-28.8v57.6h28.8c2.753,0,5.375,1.185,7.2,3.263
		c1.153,1.344,3.2,1.475,4.512,0.288c0.097-0.094,0.191-0.191,0.288-0.288c1.391-1.584,3.25-2.641,5.275-3.056
		C51.315,69.943,50.406,67.965,49.794,65.912z"/>
	<rect x="19.219" y="33.193" stroke="#000" stroke-miterlimit="10" width="16" height="6.4"/>
	
		<rect x="19.219" y="45.993" stroke="#000" stroke-width="0.48" stroke-miterlimit="10" width="16" height="6.4"/>
</g>
<path stroke="#000" stroke-width="0.48" stroke-miterlimit="10" d="M97.013,71.465l-6.122-6.128
	c2.384-6.988,0.612-14.747-4.625-19.979c-3.653-3.656-8.519-5.668-13.703-5.668c-5.181,0-10.05,2.012-13.709,5.668
	c-7.553,7.56-7.553,19.854,0,27.41c3.65,3.65,8.513,5.663,13.694,5.663c2.156,0,4.269-0.35,6.291-1.044l6.125,6.128
	c1.606,1.606,3.747,2.491,6.025,2.491c2.278,0,4.416-0.887,6.025-2.494c1.606-1.606,2.49-3.744,2.49-6.025
	C99.503,75.208,98.619,73.068,97.013,71.465z M81.897,68.399c-2.488,2.487-5.803,3.859-9.334,3.859s-6.847-1.372-9.331-3.859
	c-2.491-2.494-3.863-5.807-3.863-9.338s1.372-6.844,3.863-9.334c2.484-2.491,5.8-3.859,9.328-3.859c3.531,0,6.847,1.372,9.337,3.859
	C87.044,54.874,87.044,63.249,81.897,68.399z M86.263,72.771c0.55-0.547,1.072-1.134,1.559-1.756l4.819,4.816
	c0.444,0.444,0.688,1.031,0.685,1.659c0,0.625-0.241,1.209-0.682,1.65c-0.887,0.888-2.431,0.885-3.313,0.003l-4.822-4.819
	C85.128,73.837,85.716,73.318,86.263,72.771z"/>
</svg>
