<?xml version="1.0" encoding="utf-8"?>
<!-- Generator: Adobe Illustrator 15.0.0, SVG Export Plug-In  -->
<!DOCTYPE svg PUBLIC "-//W3C//DTD SVG 1.1//EN" "http://www.w3.org/Graphics/SVG/1.1/DTD/svg11.dtd" [
	<!ENTITY ns_flows "http://ns.adobe.com/Flows/1.0/">
]>
<svg version="1.1"
	 xmlns="http://www.w3.org/2000/svg" xmlns:xlink="http://www.w3.org/1999/xlink" xmlns:a="http://ns.adobe.com/AdobeSVGViewerExtensions/3.0/"
	 x="0px" y="0px" width="100px" height="100px" viewBox="-2.643 -20.143 100 100" enable-background="new -2.643 -20.143 100 100"
	 xml:space="preserve">
<defs>
</defs>
<path d="M42.154,45.923c-0.227,0-0.452,0-0.679,0.076l0,0c-0.754,0.075-1.583,0.227-2.337,0.453l0,0l-0.151,0.074
	c-1.583,0.453-3.092,1.206-4.449,2.187c-1.357-0.98-2.866-1.658-4.449-2.187l-0.151-0.074l0,0C29.184,46.226,28.43,46.075,27.6,46
	l0,0c-0.227,0-0.452,0-0.679-0.076c-0.302,0-0.679-0.074-0.98-0.074H6.108V20.511v-0.679l0,0V6.183h19.833
	c3.016,0,5.504,2.489,5.504,5.506v22.924c0,1.657,1.358,3.093,3.092,3.093c1.659,0,3.091-1.358,3.091-3.093V11.688
	c0-3.017,2.489-5.506,5.505-5.506h19.833v11.462c2.187,0.076,4.222,0.604,6.183,1.433V0H43.134c-3.243,0-6.41,1.357-8.597,3.771
	C32.351,1.357,29.184,0,25.941,0H0v21.039v0.754v0.076v30.089h25.941c0.603,0,1.131,0.074,1.659,0.148
	c0.151,0,0.302,0.077,0.452,0.151c0.377,0.076,0.679,0.227,1.056,0.378c0.151,0.075,0.227,0.151,0.377,0.151
	c0.075,0,0.151,0.074,0.226,0.074c0.302,0.151,0.604,0.303,0.906,0.529c0.15,0.074,0.301,0.226,0.452,0.3
	c0.376,0.303,0.754,0.604,1.131,0.98c0,0,0.075,0,0.075,0.077l0.302,0.3c0.151,0.151,0.302,0.226,0.452,0.303
	c0.152,0.075,0.227,0.15,0.377,0.227c0.377,0.151,0.754,0.226,1.207,0.226c0.377,0,0.83-0.074,1.207-0.226
	c0.15-0.076,0.226-0.151,0.376-0.227c0.151-0.077,0.377-0.151,0.453-0.303l0.301-0.3c0,0,0.075,0,0.075-0.077
	c0.302-0.376,0.679-0.678,1.131-0.98c0.151-0.148,0.301-0.226,0.452-0.3c0.302-0.152,0.603-0.378,0.905-0.529
	c0.076,0,0.151-0.074,0.227-0.074c0.151-0.076,0.227-0.151,0.377-0.151c0.301-0.151,0.678-0.226,1.055-0.378
	c0.151-0.074,0.302-0.074,0.453-0.151c0.377-0.074,0.83-0.074,1.282-0.148c0,0,0,0,0-0.077c-0.452-1.884-0.075-3.845,0.98-5.504
	c0.151-0.228,0.377-0.453,0.604-0.679H43.36C42.757,45.849,42.456,45.849,42.154,45.923z"/>
<rect x="11.463" y="17.193" width="14.705" height="6.184"/>
<rect x="11.463" y="28.655" width="14.705" height="6.183"/>
<path d="M66.511,53.464c-0.906,0.226-1.811-0.227-2.264-1.055l-5.504,2.715c1.659,3.394,5.43,5.202,9.124,4.374
	c3.694-0.831,6.335-3.998,6.41-7.769l-6.183-0.149C68.019,52.484,67.415,53.314,66.511,53.464z"/>
<path d="M79.632,40.795c-1.508,0.303-3.016-0.604-3.394-1.884l-1.509-7.015c-1.507-6.861-8.294-11.16-15.156-9.652
	c-6.862,1.509-11.162,8.295-9.652,15.157l1.432,6.638c0.378,1.584-0.677,3.167-2.261,3.468c-1.66,0.377-2.64,1.961-2.263,3.544
	c0.377,1.584,1.96,2.639,3.543,2.263l30.466-6.712c1.583-0.376,2.64-1.959,2.263-3.62C82.875,41.398,81.292,40.417,79.632,40.795z
	 M57.387,45.698c0.15-0.98,0.074-1.961-0.151-2.941l-1.432-6.635c-0.755-3.622,1.506-7.165,5.126-7.994
	c3.62-0.83,7.165,1.508,7.994,5.053l1.583,7.163c0.227,0.829,0.529,1.508,0.98,2.188L57.387,45.698z"/>
<path d="M75.937,16.212l-3.242,5.052c3.393,2.188,5.73,5.505,6.636,9.426l5.881-1.282
	C84.005,23.979,80.688,19.305,75.937,16.212z"/>
<path d="M81.215,8.069l-3.241,5.052c5.58,3.543,9.502,9.124,10.857,15.609l5.882-1.282
	C92.98,19.379,88.153,12.517,81.215,8.069z"/>
</svg>
