<?xml version="1.0" encoding="utf-8"?>
<!-- Generator: Adobe Illustrator 15.0.0, SVG Export Plug-In  -->
<!DOCTYPE svg PUBLIC "-//W3C//DTD SVG 1.1//EN" "http://www.w3.org/Graphics/SVG/1.1/DTD/svg11.dtd" [
	<!ENTITY ns_flows "http://ns.adobe.com/Flows/1.0/">
]>
<svg version="1.1"
	 xmlns="http://www.w3.org/2000/svg" xmlns:xlink="http://www.w3.org/1999/xlink" xmlns:a="http://ns.adobe.com/AdobeSVGViewerExtensions/3.0/"
	 x="0px" y="0px" width="100px" height="100px" viewBox="0.004 0 100 100" enable-background="new 0.004 0 100 100"
	 xml:space="preserve">
<defs>
</defs>
<rect x="58.654" y="91.744" width="41.266" height="8.253"/>
<rect x="75.162" y="75.494" width="24.836" height="8.253"/>
<path d="M63.688,36.309c-1.605-1.612-4.217-1.615-5.827-0.008c-0.005,0.002-0.007,0.006-0.009,0.008L21.373,72.785
	c-1.529,1.695-1.396,4.308,0.297,5.839c1.572,1.42,3.966,1.42,5.54,0l36.478-36.423c1.626-1.591,1.656-4.201,0.063-5.827
	C63.731,36.352,63.708,36.33,63.688,36.309z"/>
<path d="M86.756,42.446l11.672-11.673c2.115-2.111,2.12-5.539,0.007-7.654c-0.002-0.003-0.005-0.005-0.007-0.008
	L76.886,1.58c-2.12-2.106-5.544-2.106-7.664,0L53.173,17.697l0,0L9.734,61.135c-1.529,1.695-1.397,4.308,0.295,5.839
	c1.574,1.42,3.968,1.42,5.541,0l43.44-43.441l17.499,17.51L33.068,84.48c-1.611,1.607-1.615,4.217-0.008,5.829
	c0.003,0.005,0.005,0.005,0.008,0.009c1.599,1.613,4.201,1.622,5.813,0.023c0.008-0.007,0.016-0.014,0.024-0.023L86.61,42.613
	C86.678,42.568,86.687,42.491,86.756,42.446z M73.055,9.433l17.509,17.509l-8.207,8.208L64.846,17.697L73.055,9.433z"/>
<path d="M21.507,91.744H8.253V78.477c-0.119-2.28-2.062-4.029-4.341-3.911C1.799,74.676,0.11,76.364,0,78.477v21.52
	h21.507c2.28,0.118,4.224-1.634,4.341-3.913c0.119-2.279-1.633-4.222-3.912-4.34C21.793,91.734,21.651,91.734,21.507,91.744z"/>
</svg>
