<?xml version="1.0" encoding="utf-8"?>
<!-- Generator: Adobe Illustrator 15.0.0, SVG Export Plug-In  -->
<!DOCTYPE svg PUBLIC "-//W3C//DTD SVG 1.1//EN" "http://www.w3.org/Graphics/SVG/1.1/DTD/svg11.dtd" [
	<!ENTITY ns_flows "http://ns.adobe.com/Flows/1.0/">
]>
<svg version="1.1"
	 xmlns="http://www.w3.org/2000/svg" xmlns:xlink="http://www.w3.org/1999/xlink" xmlns:a="http://ns.adobe.com/AdobeSVGViewerExtensions/3.0/"
	 x="0px" y="0px" width="100px" height="100px" viewBox="-1.342 -3.547 100 100" enable-background="new -1.342 -3.547 100 100"
	 xml:space="preserve">
<defs>
</defs>
<path d="M76.252,92.929c-0.768,0-1.52-0.222-2.162-0.639L48.671,75.834L23.253,92.238
	c-1.845,1.201-4.317,0.683-5.521-1.162c-0.622-0.949-0.807-2.12-0.512-3.22l7.752-29.19L1.521,39.519
	c-1.734-1.371-2.03-3.886-0.659-5.62c0.719-0.912,1.801-1.466,2.962-1.517l30.198-1.622L44.941,2.552
	c0.601-1.537,2.081-2.549,3.73-2.552l0,0c1.649,0.003,3.131,1.016,3.729,2.552L63.31,30.76l30.208,1.622
	c2.208,0.125,3.894,2.015,3.77,4.22c-0.066,1.121-0.597,2.162-1.466,2.872L72.37,58.58l2.607,9.859
	c0.563,2.131-0.707,4.317-2.838,4.881c-2.133,0.565-4.319-0.705-4.883-2.838l-3.241-12.357c-0.406-1.51,0.106-3.119,1.308-4.117
	l17.45-14.22l-22.479-1.231c-1.563-0.101-2.927-1.095-3.503-2.552l-8.12-20.921l-8.13,20.964c-0.568,1.462-1.937,2.459-3.503,2.551
	l-22.467,1.233l17.44,14.176c1.219,0.989,1.743,2.601,1.34,4.117l-5.763,21.829L46.51,67.725c1.315-0.854,3.008-0.854,4.324,0
	l27.58,17.799c1.854,1.206,2.375,3.683,1.169,5.534c-0.734,1.126-1.984,1.809-3.33,1.818V92.929z"/>
</svg>
