<?xml version="1.0" encoding="utf-8"?>
<!-- Generator: Adobe Illustrator 15.0.0, SVG Export Plug-In  -->
<!DOCTYPE svg PUBLIC "-//W3C//DTD SVG 1.1//EN" "http://www.w3.org/Graphics/SVG/1.1/DTD/svg11.dtd" [
	<!ENTITY ns_flows "http://ns.adobe.com/Flows/1.0/">
]>
<svg version="1.1"
	 xmlns="http://www.w3.org/2000/svg" xmlns:xlink="http://www.w3.org/1999/xlink" xmlns:a="http://ns.adobe.com/AdobeSVGViewerExtensions/3.0/"
	 x="0px" y="0px" width="100px" height="100px" viewBox="-3.805 -9.969 100 100" enable-background="new -3.805 -9.969 100 100"
	 xml:space="preserve">
<defs>
</defs>
<path d="M67.483,10.274v19.974h6.839V0L48.046,11.005l-21.973-9.2L0,12.801v60.003l26.083-11.032l21.742,9.255
	l3.424-1.423V65.29c0.024-0.09,0.042-0.177,0.057-0.268V17.104c0,0,0,0,0-0.055L67.483,10.274z M29.359,10.597l15.383,6.479
	c0,0,0,0,0,0.056v45.112l-15.374-6.479L29.359,10.597z M6.84,17.345l15.938-6.729v45.15L6.84,62.505V17.345z"/>
<path d="M92.391,40.901v-1.972c-0.006-2.431-1.974-4.4-4.405-4.406H60.283c-2.434,0-4.407,1.973-4.407,4.406l0,0
	v1.972c0,8.495,5.019,13.069,10.053,16.382c-5.258,3.479-10.053,7.913-10.053,16.402v3.09c0,1.814,1.473,3.288,3.287,3.288l0,0
	h29.933c1.814,0.003,3.289-1.462,3.295-3.276c0-0.004,0-0.008,0-0.012v-3.09c0-8.496-5.748-13.413-10.256-16.383
	C85.894,54.841,92.391,50.352,92.391,40.901z M78.257,52.009c-1.778,1.115-2.906,3.021-3.027,5.117
	c-0.008,0.141-0.008,0.277,0,0.417c0.125,2.075,1.237,3.966,2.991,5.082c5.304,3.46,7.515,6.626,7.589,10.894H62.459
	c0.064-5.129,2.774-7.886,7.283-10.829c1.811-1.106,2.967-3.027,3.092-5.146c0.008-0.14,0.008-0.276,0-0.417
	c-0.114-2.084-1.23-3.982-2.999-5.091c-4.628-3.007-7.312-5.767-7.404-10.894H85.81c-0.074,4.971-2.832,7.758-7.553,10.829V52.009z"
	/>
</svg>
