<?xml version="1.0" encoding="utf-8"?>
<!-- Generator: Adobe Illustrator 15.0.0, SVG Export Plug-In . SVG Version: 6.00 Build 0)  -->
<!DOCTYPE svg PUBLIC "-//W3C//DTD SVG 1.1//EN" "http://www.w3.org/Graphics/SVG/1.1/DTD/svg11.dtd">
<svg version="1.1" id="Warstwa_1" xmlns="http://www.w3.org/2000/svg" xmlns:xlink="http://www.w3.org/1999/xlink" x="0px" y="0px"
	 width="100px" height="100px" viewBox="0 0 100 100" enable-background="new 0 0 100 100" xml:space="preserve">
<rect x="18.925" y="37.5" width="18.325" height="7.5"/>
<rect x="18.925" y="22.5" width="32.976" height="7.5"/>
<path d="M99.201,29.55l-14.477-14.8c-0.51-0.529-1.215-0.827-1.949-0.825c-0.733,0.004-1.437,0.301-1.949,0.825
	l-7.551,7.75V0H0v56.25c-0.047,8.943,6.236,16.671,15,18.45c1.537,8.757,9.085,15.181,17.975,15.3h40.3V60L99.2,33.55
	C100.279,32.435,100.279,30.665,99.201,29.55z M65.951,82.5H32.976c-6.144-0.068-11.069-5.105-11-11.248c0-0.001,0-0.002,0-0.002
	V67.5h-3.65c-6.13-0.055-11.056-5.068-11.001-11.199c0-0.017,0-0.033,0.001-0.051V7.5h58.625V30l-19.5,20l0,0l-4.1,19.7
	c-0.264,1.538,0.768,2.997,2.306,3.263C44.771,72.982,44.885,72.994,45,73h0.575l19.25-4.2l0,0l1.125-1.149L65.951,82.5L65.951,82.5
	z M61.125,61.9L50.975,64.1l2.15-10.398l29.65-30.35l8,8.2L61.125,61.9z"/>
</svg>
