<?xml version="1.0" encoding="utf-8"?>
<!-- Generator: Adobe Illustrator 15.0.0, SVG Export Plug-In  -->
<!DOCTYPE svg PUBLIC "-//W3C//DTD SVG 1.1//EN" "http://www.w3.org/Graphics/SVG/1.1/DTD/svg11.dtd" [
	<!ENTITY ns_flows "http://ns.adobe.com/Flows/1.0/">
]>
<svg version="1.1"
	 xmlns="http://www.w3.org/2000/svg" xmlns:xlink="http://www.w3.org/1999/xlink" xmlns:a="http://ns.adobe.com/AdobeSVGViewerExtensions/3.0/"
	 x="0px" y="0px" width="100px" height="100px" viewBox="-14.889 -4.23 100 100" enable-background="new -14.889 -4.23 100 100"
	 xml:space="preserve">
<defs>
</defs>
<path d="M66.412,0H3.86C1.706,0,0,1.705,0,3.858v19.834c0,3.231,1.526,6.282,4.128,8.436L21.09,45.77L4.219,59.321
	C1.526,61.477,0,64.527,0,67.756v19.925c0,2.153,1.706,3.857,3.86,3.857h62.552c2.153,0,3.857-1.704,3.857-3.857V67.848
	c0-3.231-1.524-6.283-4.217-8.437L49.001,45.77l16.873-13.551c2.691-2.154,4.307-5.295,4.307-8.436l0,0V3.858
	C70.181,1.705,68.477,0,66.412,0z M62.552,18.667H19.475c-2.154,0-3.859,1.705-3.859,3.858c0,2.154,1.705,3.859,3.859,3.859h41.551
	L40.476,42.718c-0.897,0.718-1.436,1.795-1.436,2.962c0,1.166,0.538,2.242,1.436,2.96l20.641,16.693
	c0.896,0.718,1.346,1.616,1.346,2.422v15.976H7.629V67.668c0-0.898,0.448-1.705,1.346-2.423l20.641-16.514
	c0.897-0.718,1.436-1.795,1.436-2.962c0-1.167-0.539-2.243-1.436-2.961L8.975,26.115c-0.628-0.448-1.346-1.346-1.346-2.423V7.718
	h54.833v10.949H62.552z"/>
<rect x="31.95" y="68.386" width="7.718" height="7.719"/>
<rect x="31.95" y="53.128" width="7.718" height="7.719"/>
</svg>
