<?xml version="1.0" encoding="utf-8"?>
<!-- Generator: Adobe Illustrator 15.0.0, SVG Export Plug-In  -->
<!DOCTYPE svg PUBLIC "-//W3C//DTD SVG 1.1//EN" "http://www.w3.org/Graphics/SVG/1.1/DTD/svg11.dtd" [
	<!ENTITY ns_flows "http://ns.adobe.com/Flows/1.0/">
]>
<svg version="1.1"
	 xmlns="http://www.w3.org/2000/svg" xmlns:xlink="http://www.w3.org/1999/xlink" xmlns:a="http://ns.adobe.com/AdobeSVGViewerExtensions/3.0/"
	 x="0px" y="0px" width="100px" height="100px" viewBox="-3.608 -4.552 100 100" enable-background="new -3.608 -4.552 100 100"
	 xml:space="preserve">
<defs>
</defs>
<rect x="18.061" y="35.042" width="6.989" height="6.989"/>
<rect x="32.077" y="35.042" width="6.989" height="6.989"/>
<rect x="18.061" y="20.976" width="6.989" height="6.99"/>
<polygon points="42.608,20.976 32.086,20.976 32.086,27.966 42.608,27.966 46.103,27.966 49.598,27.966 
	49.598,20.976 46.103,20.976 "/>
<path d="M88.855,42.107H69.909V0H0v52.437c0.022,8.41,6.005,15.626,14.267,17.203
	c1.573,8.259,8.786,14.238,17.193,14.258h18.137v3.061c0,2.172,1.758,3.933,3.929,3.937h35.329c2.17-0.004,3.927-1.765,3.927-3.937
	V46.036C92.782,43.866,91.025,42.107,88.855,42.107L88.855,42.107z M49.598,46.036V76.91H31.46
	c-5.779,0.01-10.472-4.667-10.483-10.448c0-0.012,0-0.023,0-0.037V62.93h-3.466c-5.791,0.006-10.488-4.686-10.493-10.474
	c0-0.008,0-0.012,0-0.02V6.999H62.95v35.109h-9.396c-2.17-0.016-3.94,1.729-3.957,3.899C49.598,46.015,49.598,46.026,49.598,46.036z
	 M67.658,83.898H56.587v-6.934h11.071V83.898z M67.658,69.976H56.587v-6.939h11.071V69.976z M85.794,83.898H74.647v-6.934h11.146
	V83.898z M85.794,69.976H74.647v-6.939h11.146V69.976z M85.794,56.045H56.587v-6.939h29.207V56.045z"/>
</svg>
