<?xml version="1.0" encoding="utf-8"?>
<!-- Generator: Adobe Illustrator 15.0.0, SVG Export Plug-In  -->
<!DOCTYPE svg PUBLIC "-//W3C//DTD SVG 1.1//EN" "http://www.w3.org/Graphics/SVG/1.1/DTD/svg11.dtd" [
	<!ENTITY ns_flows "http://ns.adobe.com/Flows/1.0/">
]>
<svg version="1.1"
	 xmlns="http://www.w3.org/2000/svg" xmlns:xlink="http://www.w3.org/1999/xlink" xmlns:a="http://ns.adobe.com/AdobeSVGViewerExtensions/3.0/"
	 x="0px" y="0px" width="100px" height="100px" viewBox="-1.893 -12.981 100 100" enable-background="new -1.893 -12.981 100 100"
	 xml:space="preserve">
<defs>
</defs>
<rect x="50.849" y="19.6" width="6.048" height="6.048"/>
<path d="M87.141,0H44.803c-5.01,0.004-9.07,4.065-9.075,9.075V19.6H9.075C4.065,19.605,0.005,23.665,0,28.674v27.217
	c0.005,5.009,4.065,9.069,9.075,9.074h34.168c0.686-0.001,1.352,0.232,1.887,0.661l10.442,7.75c1.307,1.042,3.213,0.827,4.255-0.48
	c0.427-0.534,0.659-1.198,0.66-1.885V45.406h26.653c5.005-0.003,9.063-4.059,9.074-9.065V9.075C96.21,4.065,92.148,0.004,87.141,0z
	 M54.43,64.721l-5.483-3.814c-1.61-1.287-3.61-1.988-5.669-1.988H9.075c-1.672,0-3.027-1.355-3.027-3.027l0,0V28.674
	c0-1.672,1.355-3.027,3.027-3.027l0,0h26.653v25.772c-0.002,1.672,1.35,3.03,3.022,3.034c0.688,0.001,1.355-0.23,1.893-0.661
	l10.442-7.739c0.531-0.438,1.198-0.675,1.887-0.671h1.469L54.43,64.721z M90.159,36.298c-0.006,1.669-1.359,3.02-3.027,3.02h-34.16
	c-2.061,0.001-4.06,0.701-5.669,1.988l-5.527,3.814V9.058c0-1.672,1.355-3.028,3.028-3.028l0,0h42.337
	c1.672,0,3.026,1.355,3.026,3.028l0,0L90.159,36.298z"/>
<rect x="62.943" y="19.6" width="6.048" height="6.048"/>
<rect x="75.046" y="19.6" width="6.047" height="6.048"/>
<rect x="15.122" y="39.192" width="6.046" height="6.046"/>
<rect x="27.216" y="39.192" width="6.046" height="6.046"/>
</svg>
