<?xml version="1.0" encoding="utf-8"?>
<!-- Generator: Adobe Illustrator 15.0.0, SVG Export Plug-In  -->
<!DOCTYPE svg PUBLIC "-//W3C//DTD SVG 1.1//EN" "http://www.w3.org/Graphics/SVG/1.1/DTD/svg11.dtd" [
	<!ENTITY ns_flows "http://ns.adobe.com/Flows/1.0/">
]>
<svg version="1.1"
	 xmlns="http://www.w3.org/2000/svg" xmlns:xlink="http://www.w3.org/1999/xlink" xmlns:a="http://ns.adobe.com/AdobeSVGViewerExtensions/3.0/"
	 x="0px" y="0px" width="100px" height="100px" viewBox="-0.49 -2.265 100 100" enable-background="new -0.49 -2.265 100 100"
	 xml:space="preserve">
<defs>
</defs>
<path d="M86.328,43.354c-4.083-0.001-7.913,1.975-10.281,5.303l-6.019-2.13c0.212-1.169,0.32-2.354,0.324-3.542
	c0.003-5.321-2.034-10.44-5.694-14.303l3.251-4.204c6.528,2.501,13.846-0.762,16.348-7.29c2.501-6.526-0.762-13.845-7.29-16.346
	C70.44-1.66,63.123,1.604,60.622,8.131c-0.557,1.449-0.842,2.99-0.84,4.542c0.005,2.714,0.89,5.353,2.522,7.521l-3.273,4.238
	c-6.019-3.138-13.193-3.138-19.213,0l-3.217-4.238c4.148-5.618,2.957-13.535-2.662-17.682C28.32-1.635,20.403-0.443,16.256,5.175
	c-4.148,5.617-2.957,13.535,2.662,17.683c2.198,1.622,4.862,2.49,7.594,2.471c1.536-0.014,3.055-0.309,4.484-0.875l3.217,4.227
	c-3.615,3.867-5.62,8.965-5.604,14.258c0.004,1.207,0.114,2.411,0.324,3.599l-5.862,2.242c-3.973-5.752-11.854-7.195-17.606-3.222
	c-5.75,3.972-7.194,11.853-3.222,17.605c3.972,5.752,11.854,7.195,17.606,3.223c3.426-2.367,5.469-6.267,5.463-10.432
	c0-0.168,0-0.313,0-0.47l6.031-2.333c3.088,5.482,8.483,9.278,14.685,10.336v7.119c-6.727,1.942-10.604,8.971-8.66,15.697
	c1.944,6.729,8.973,10.606,15.699,8.662c6.727-1.945,10.604-8.975,8.66-15.701c-1.207-4.18-4.476-7.451-8.66-8.658v-7.119
	c6.226-1.064,11.633-4.883,14.718-10.392l6.032,2.132c0,0.243-0.078,0.48-0.078,0.727c0,7.002,5.676,12.678,12.678,12.678
	c7.001,0,12.679-5.676,12.679-12.678c0-7.003-5.678-12.678-12.679-12.678l0,0L86.328,43.354z M12.589,61.671
	c-3.095,0-5.604-2.508-5.604-5.604s2.509-5.604,5.604-5.604c3.096,0,5.606,2.508,5.606,5.604S15.685,61.671,12.589,61.671z
	 M72.461,7.035c3.095,0,5.604,2.509,5.604,5.604c0,3.096-2.51,5.605-5.604,5.605s-5.604-2.509-5.604-5.605
	C66.856,9.544,69.366,7.035,72.461,7.035z M20.818,12.639c0-3.095,2.509-5.604,5.604-5.604c3.096,0,5.605,2.509,5.605,5.604
	c0,3.096-2.509,5.605-5.605,5.605c-3.083,0.001-5.586-2.489-5.604-5.57V12.639z M55.063,82.8c0,3.099-2.511,5.607-5.605,5.607
	c-3.096,0-5.605-2.509-5.605-5.607c0-3.094,2.509-5.604,5.605-5.604C52.553,77.195,55.063,79.706,55.063,82.8z M49.458,56.841
	c-7.652,0-13.855-6.204-13.855-13.856c0-7.652,6.204-13.855,13.855-13.855c7.651,0,13.855,6.203,13.855,13.855
	C63.307,50.634,57.109,56.834,49.458,56.841z M86.328,61.671c-3.095,0-5.605-2.508-5.605-5.604s2.511-5.604,5.605-5.604
	c3.094,0,5.604,2.508,5.604,5.604S89.422,61.671,86.328,61.671L86.328,61.671z"/>
</svg>
