<?xml version="1.0" encoding="utf-8"?>
<!-- Generator: Adobe Illustrator 15.0.0, SVG Export Plug-In . SVG Version: 6.00 Build 0)  -->
<!DOCTYPE svg PUBLIC "-//W3C//DTD SVG 1.1//EN" "http://www.w3.org/Graphics/SVG/1.1/DTD/svg11.dtd">
<svg version="1.1" id="Warstwa_1" xmlns="http://www.w3.org/2000/svg" xmlns:xlink="http://www.w3.org/1999/xlink" x="0px" y="0px"
	 width="100px" height="100px" viewBox="0 0 100 100" enable-background="new 0 0 100 100" xml:space="preserve">
<path d="M50,73.658c-1.189,0.004-2.321-0.514-3.098-1.414l-36.439-41.22c-1.098-1.246-1.374-3.016-0.707-4.537
	c0.684-1.485,2.169-2.437,3.805-2.439h15.976V4.219C29.523,1.902,31.39,0.013,33.707,0l0,0h32.585
	c2.315,0.013,4.185,1.902,4.17,4.219l0,0V24h15.978c1.635,0.002,3.119,0.954,3.805,2.439c0.666,1.521,0.391,3.291-0.707,4.537
	L53.098,72.244C52.32,73.145,51.189,73.662,50,73.658z M22.878,32.439L50,63.122l27.122-30.683H66.293
	c-2.305,0-4.172-1.867-4.172-4.17c0-0.017,0-0.033,0.001-0.049V8.439H37.878v19.78c0.014,2.317-1.854,4.206-4.17,4.22l0,0H22.878z"
	/>
<path d="M91.658,66.73v12.635H8.341V66.73H0v12.635C-0.027,84,3.708,87.777,8.341,87.805l0,0h83.317
	c4.635-0.027,8.369-3.805,8.342-8.438c0-0.001,0-0.001,0-0.001V66.73H91.658z"/>
</svg>
