<?xml version="1.0" encoding="utf-8"?>
<!-- Generator: Adobe Illustrator 15.0.0, SVG Export Plug-In  -->
<!DOCTYPE svg PUBLIC "-//W3C//DTD SVG 1.1//EN" "http://www.w3.org/Graphics/SVG/1.1/DTD/svg11.dtd" [
	<!ENTITY ns_flows "http://ns.adobe.com/Flows/1.0/">
]>
<svg version="1.1"
	 xmlns="http://www.w3.org/2000/svg" xmlns:xlink="http://www.w3.org/1999/xlink" xmlns:a="http://ns.adobe.com/AdobeSVGViewerExtensions/3.0/"
	 x="0px" y="0px" width="100px" height="100px" viewBox="-2.325 -10.286 100 100" enable-background="new -2.325 -10.286 100 100"
	 xml:space="preserve">
<defs>
</defs>
<polygon points="46.333,52.952 46.333,46.332 46.333,39.714 82.786,39.714 74.537,47.867 79.234,52.568 
	95.35,36.357 79.234,20.241 74.537,24.941 82.786,33.095 46.333,33.095 46.333,33.095 39.714,33.095 39.714,46.332 0,46.332 
	0,52.952 39.714,52.952 "/>
<polygon points="6.619,39.619 13.238,39.619 19.856,39.619 33.094,39.619 33.094,33.095 33.094,26.477 
	33.094,19.857 33.094,13.238 26.475,13.238 26.475,19.857 19.856,19.857 19.856,13.238 13.238,13.238 13.238,19.857 13.238,23.118 
	13.238,26.477 26.475,26.477 26.475,33.095 19.856,33.095 13.238,33.095 6.619,33.095 6.619,6.619 39.714,6.619 39.714,26.477 
	46.333,26.477 46.333,19.857 59.57,19.857 59.57,26.477 66.189,26.477 66.189,19.857 66.189,19.857 66.189,13.238 66.189,13.238 
	59.57,13.238 46.333,13.238 46.333,6.619 72.809,6.619 72.809,13.238 79.427,13.238 79.427,6.619 79.427,0 72.809,0 6.619,0 0,0 
	0,6.619 0,39.619 5.66,39.619 "/>
<polygon points="66.189,59.572 66.189,66.19 72.809,66.19 72.809,72.809 59.57,72.809 59.57,66.19 59.57,59.572 
	59.57,52.952 66.189,52.952 66.189,46.332 59.57,46.332 52.952,46.332 52.952,52.952 52.952,59.572 39.714,59.572 39.714,66.19 
	52.952,66.19 52.952,72.809 33.094,72.809 33.094,59.572 26.475,59.572 26.475,72.809 6.619,72.809 6.619,66.19 19.856,66.19 
	19.856,59.572 6.619,59.572 0,59.572 0,66.19 0,72.809 0,79.429 6.619,79.429 79.427,79.429 79.427,75.015 79.427,72.809 
	79.427,59.572 72.809,59.572 "/>
</svg>
