<?xml version="1.0" encoding="utf-8"?>
<!-- Generator: Adobe Illustrator 15.0.0, SVG Export Plug-In  -->
<!DOCTYPE svg PUBLIC "-//W3C//DTD SVG 1.1//EN" "http://www.w3.org/Graphics/SVG/1.1/DTD/svg11.dtd" [
	<!ENTITY ns_flows "http://ns.adobe.com/Flows/1.0/">
]>
<svg version="1.1"
	 xmlns="http://www.w3.org/2000/svg" xmlns:xlink="http://www.w3.org/1999/xlink" xmlns:a="http://ns.adobe.com/AdobeSVGViewerExtensions/3.0/"
	 x="0px" y="0px" width="100px" height="100px" viewBox="-4.962 -0.884 100 100" enable-background="new -4.962 -0.884 100 100"
	 xml:space="preserve">
<defs>
</defs>
<path d="M45.012,0C20.165,0.031,0.031,20.167,0,45.012v40.923c0.031,6.786,5.541,12.271,12.325,12.271h8.181
	c6.785,0,12.294-5.485,12.325-12.271V61.429c0-6.807-5.519-12.326-12.325-12.326h-8.181c-1.399,0.013-2.788,0.267-4.101,0.75v-4.841
	c0-20.342,16.49-36.832,36.833-36.832C65.4,8.18,81.89,24.67,81.89,45.012v4.841c-1.314-0.483-2.702-0.737-4.102-0.75h-8.181
	c-6.807,0-12.324,5.52-12.324,12.326v24.552c0.029,6.784,5.538,12.27,12.324,12.27h8.181c6.786,0,12.297-5.485,12.324-12.27V45.012
	C90.083,20.131,69.895-0.018,45.012,0z M12.28,57.284h8.181c2.265,0.005,4.096,1.848,4.089,4.111c0,0.012,0,0.022,0,0.034v24.552
	c-0.006,2.257-1.834,4.082-4.089,4.091H12.28c-2.26,0-4.095-1.829-4.101-4.091V61.429c-0.025-2.266,1.792-4.122,4.056-4.146
	C12.25,57.284,12.266,57.284,12.28,57.284z M81.844,85.935c-0.004,2.262-1.84,4.091-4.1,4.091h-8.181
	c-2.257-0.007-4.086-1.834-4.091-4.091V61.429c0-2.261,1.83-4.095,4.091-4.102h8.181c2.264,0,4.1,1.836,4.1,4.102l0,0v24.552V85.935
	z"/>
</svg>
