<?xml version="1.0" encoding="utf-8"?>
<!-- Generator: Adobe Illustrator 15.0.0, SVG Export Plug-In  -->
<!DOCTYPE svg PUBLIC "-//W3C//DTD SVG 1.1//EN" "http://www.w3.org/Graphics/SVG/1.1/DTD/svg11.dtd" [
	<!ENTITY ns_flows "http://ns.adobe.com/Flows/1.0/">
]>
<svg version="1.1"
	 xmlns="http://www.w3.org/2000/svg" xmlns:xlink="http://www.w3.org/1999/xlink" xmlns:a="http://ns.adobe.com/AdobeSVGViewerExtensions/3.0/"
	 x="0px" y="0px" width="100px" height="100px" viewBox="-0.052 -19.232 100 100" enable-background="new -0.052 -19.232 100 100"
	 xml:space="preserve">
<defs>
</defs>
<rect x="12.441" y="18.662" width="16.019" height="6.688"/>
<rect x="46.896" y="18.662" width="16.02" height="6.688"/>
<rect x="12.441" y="31.103" width="16.019" height="6.689"/>
<path d="M37.674,30.016h3.219v-17.34c0.005-3.304,2.683-5.981,5.986-5.986h21.538v14.824l0,0v8.603h6.612h0.058
	V0.017H46.879c-3.549,0.003-6.934,1.495-9.331,4.114C35.153,1.505,31.764,0.005,28.21,0H0v56.454h30.618v-6.69H6.689V21.521l0,0
	V6.689H28.21c3.304,0.005,5.981,2.683,5.986,5.986v18.193C35.272,30.315,36.464,30.023,37.674,30.016z"/>
<path d="M96.767,34.698H37.549c-1.716,0.004-3.105,1.395-3.11,3.11v10.869c-0.004,7.094,5.74,12.85,12.834,12.858
	h5.285c7.082-0.009,12.82-5.751,12.826-12.832v-7.785h3.569v7.785c0.009,7.083,5.749,12.823,12.832,12.832h5.285
	c7.083-0.009,12.821-5.751,12.825-12.832V37.833c0.014-1.718-1.366-3.121-3.085-3.135C96.796,34.698,96.783,34.698,96.767,34.698z
	 M59.145,48.704c0,3.648-2.956,6.607-6.604,6.611h-5.268c-3.651-0.004-6.609-2.963-6.614-6.611v-7.785h18.486V48.704z
	 M93.657,48.704c0,3.648-2.954,6.607-6.604,6.611H81.77c-3.65-0.004-6.61-2.963-6.613-6.611v-7.785h18.518L93.657,48.704z"/>
</svg>
