<?xml version="1.0" encoding="utf-8"?>
<!-- Generator: Adobe Illustrator 15.0.0, SVG Export Plug-In . SVG Version: 6.00 Build 0)  -->
<!DOCTYPE svg PUBLIC "-//W3C//DTD SVG 1.1//EN" "http://www.w3.org/Graphics/SVG/1.1/DTD/svg11.dtd">
<svg version="1.1" id="Layer_1" xmlns="http://www.w3.org/2000/svg" xmlns:xlink="http://www.w3.org/1999/xlink" x="0px" y="0px"
	 width="100px" height="100px" viewBox="0 0 100 100" enable-background="new 0 0 100 100" xml:space="preserve">
<g>
	<rect x="0.68" y="85.973" width="98.64" height="8.22"/>
</g>
<path d="M29.45,7.883H10.955c-3.399,0-6.165,2.766-6.165,6.165v57.54c0,3.399,2.766,6.165,6.165,6.165H29.45
	c3.399,0,6.165-2.766,6.165-6.165v-57.54C35.615,10.648,32.85,7.883,29.45,7.883z M27.395,69.533H13.01v-53.43h14.385V69.533z"/>
<path d="M52.398,7.883H33.903c-3.4,0-6.165,2.766-6.165,6.165v57.54c0,3.399,2.765,6.165,6.165,6.165h18.495
	c3.397,0,6.167-2.766,6.167-6.165v-57.54C58.565,10.648,55.796,7.883,52.398,7.883z M50.343,69.533H35.958v-53.43h14.385V69.533z"/>
<path d="M74.339,6.681l-17.836,4.893c-3.279,0.899-5.216,4.298-4.317,7.576l15.222,55.489
	c0.899,3.283,4.299,5.218,7.574,4.319l17.837-4.896c3.279-0.899,5.218-4.295,4.319-7.574L81.913,10.996
	C81.014,7.716,77.614,5.782,74.339,6.681z M88.664,66.679l-13.875,3.805L60.656,18.957l13.875-3.805L88.664,66.679z"/>
</svg>
