<?xml version="1.0" encoding="utf-8"?>
<!-- Generator: Adobe Illustrator 15.0.0, SVG Export Plug-In . SVG Version: 6.00 Build 0)  -->
<!DOCTYPE svg PUBLIC "-//W3C//DTD SVG 1.1//EN" "http://www.w3.org/Graphics/SVG/1.1/DTD/svg11.dtd">
<svg version="1.1" id="Warstwa_1" xmlns="http://www.w3.org/2000/svg" xmlns:xlink="http://www.w3.org/1999/xlink" x="0px" y="0px"
	 width="100px" height="100px" viewBox="-331.5 386.5 100 100" enable-background="new -331.5 386.5 100 100" xml:space="preserve">
<title>geografia</title>
<path d="M-232.376,436.499c-0.012-26.393-20.854-47.912-46.977-49.021l-0.099-0.075h-1.458c-0.2-0.003-0.39-0.03-0.589-0.03
	s-0.39,0.027-0.589,0.03h-1.459v0.075c-26.227,1.091-47.075,22.623-47.075,49.021c0,26.397,20.849,47.923,46.978,49.018l0.097,0.078
	h1.45c0.203,0.003,0.396,0.03,0.598,0.03s0.396-0.027,0.598-0.03h1.45v-0.075c26.224-1.104,47.066-22.629,47.078-49.018
	L-232.376,436.499z M-240.669,434.454h-14.028c-0.321-13.975-3.868-26.416-9.354-34.931c13.35,6.419,22.575,19.512,23.375,34.828
	L-240.669,434.454z M-271.228,476.076c-2.417,0.659-5.235,1.105-8.131,1.25l-0.099-38.78h20.672
	C-259.182,454.685-264.189,468.881-271.228,476.076L-271.228,476.076z M-304.217,438.546h20.667v38.783
	c-2.994-0.15-5.809-0.6-8.513-1.316c-6.758-7.132-11.761-21.328-12.157-37.467H-304.217z M-291.778,396.921
	c2.419-0.659,5.234-1.105,8.129-1.25l0.099,38.783h-20.67C-303.824,418.315-298.824,404.116-291.778,396.921z M-279.455,434.454
	v-38.786c2.992,0.15,5.81,0.6,8.514,1.316c6.758,7.132,11.758,21.331,12.154,37.47H-279.455z M-298.953,399.521
	c-5.486,8.512-9.038,20.953-9.357,34.931h-14.026c0.807-15.422,10.032-28.512,23.138-34.825L-298.953,399.521z M-322.333,438.546
	h14.026c0.322,13.972,3.871,26.413,9.357,34.928c-13.347-6.419-22.574-19.506-23.377-34.825L-322.333,438.546z M-264.051,473.474
	c5.486-8.515,9.033-20.956,9.354-34.928h14.028c-0.807,15.422-10.032,28.509-23.136,34.819L-264.051,473.474z"/>
</svg>
