<?xml version="1.0" encoding="utf-8"?>
<!-- Generator: Adobe Illustrator 15.0.0, SVG Export Plug-In . SVG Version: 6.00 Build 0)  -->
<!DOCTYPE svg PUBLIC "-//W3C//DTD SVG 1.1//EN" "http://www.w3.org/Graphics/SVG/1.1/DTD/svg11.dtd">
<svg version="1.1" id="Warstwa_1" xmlns="http://www.w3.org/2000/svg" xmlns:xlink="http://www.w3.org/1999/xlink" x="0px" y="0px"
	 width="100px" height="100px" viewBox="-23.5 -30.75 100 100" enable-background="new -23.5 -30.75 100 100" xml:space="preserve">
<title>jezyk-polski</title>
<path d="M38.771-22.997c-4.882,0.005-9.262,2.292-12.256,5.914c-3.023-3.622-7.403-5.909-12.285-5.914h-36.812v78.55h36.812
	c3.663,0,6.947,1.716,9.192,4.434c0.756,0.933,1.853,1.514,3.075,1.514c1.044,0,1.991-0.421,2.707-1.111
	c0.121-0.124,0.241-0.26,0.363-0.387c2.257-2.733,5.544-4.45,9.203-4.45h36.812V-23L38.771-22.997z M67.4,46.824H38.773
	c-4.627,0.01-8.893,1.65-12.322,4.404c-3.327-2.754-7.591-4.395-12.216-4.404h-28.632V-14.27h28.629
	c4.512,0.015,8.167,3.913,8.18,8.726V29.37c0,0.004,0,0.006,0,0.01c0,2.412,1.831,4.364,4.089,4.364c2.262,0,4.09-1.952,4.09-4.364
	c0-0.004,0-0.006,0-0.01V-5.541c0.019-4.813,3.669-8.714,8.183-8.727h28.633L67.4,46.824z M-6.219,14.13h20.451v4.363H-6.219V14.13z
	 M-6.219,3.321h20.451v4.366H-6.219V3.321z M-6.219,24.937h20.451v4.368H-6.219V24.937z M38.771,14.13h20.45v4.363h-20.45V14.13z
	 M38.771,3.321h20.45v4.366h-20.45V3.321z M38.771,24.937h20.45v4.368h-20.45V24.937z" />
</svg>
