<?xml version="1.0" encoding="utf-8"?>
<!-- Generator: Adobe Illustrator 15.1.0, SVG Export Plug-In  -->
<!DOCTYPE svg PUBLIC "-//W3C//DTD SVG 1.1//EN" "http://www.w3.org/Graphics/SVG/1.1/DTD/svg11.dtd" [
	<!ENTITY ns_flows "http://ns.adobe.com/Flows/1.0/">
]>
<svg version="1.1"
	 xmlns="http://www.w3.org/2000/svg" xmlns:xlink="http://www.w3.org/1999/xlink" xmlns:a="http://ns.adobe.com/AdobeSVGViewerExtensions/3.0/"
	 x="0px" y="0px" width="100px" height="100px" viewBox="0 -9.524 100 100" enable-background="new 0 -9.524 100 100"
	 xml:space="preserve">
<defs>
</defs>
<path d="M0,0v80.953h100V0H0z M15.714,71.142L48.048,45v26.143H15.714z M84.285,9.81L51.952,35.952V9.81H84.285z M92.19,9.81v28.286
	H56.619l34.857-28.19L92.19,9.81z M43.381,38.095H7.81V9.81h0.714L43.381,38.095z M48.143,36.047L15.714,9.81h32.333L48.143,36.047z
	 M43.381,42.857L8.524,71.142H7.81V42.857H43.381z M51.952,44.905l32.333,26.143H51.952V44.905z M92.19,71.047h-0.714l-34.857-28.19
	H92.19V71.047z" />
</svg>
