<?xml version="1.0" encoding="utf-8"?>
<!-- Generator: Adobe Illustrator 22.1.0, SVG Export Plug-In . SVG Version: 6.00 Build 0)  -->
<svg version="1.1" id="Layer_1" xmlns="http://www.w3.org/2000/svg" xmlns:xlink="http://www.w3.org/1999/xlink" x="0px" y="0px" width="100px" height="100px"
	 viewBox="0 0 100 100" style="enable-background:new 0 0 100 100;" xml:space="preserve">
<path d="M35.4,45.1h-9.8v9.8h9.8V45.1z M55,45.1h-9.8v9.8H55V45.1z M74.6,45.1h-9.8v9.8h9.8V45.1z M84.4,10.8
	h-4.9V1h-9.8v9.8H30.5V1h-9.8v9.8h-4.9c-5.4,0-9.8,4.4-9.8,9.8l0,68.6c0,5.4,4.4,9.8,9.8,9.8h68.6c5.4,0,9.8-4.4,9.8-9.8V20.6
	C94.2,15.2,89.8,10.8,84.4,10.8z M84.4,89.2H15.8V35.3h68.6V89.2z"/>
</svg>
