<?xml version="1.0" encoding="utf-8"?>
<!-- Generator: Adobe Illustrator 15.1.0, SVG Export Plug-In  -->
<!DOCTYPE svg PUBLIC "-//W3C//DTD SVG 1.1//EN" "http://www.w3.org/Graphics/SVG/1.1/DTD/svg11.dtd" [
	<!ENTITY ns_flows "http://ns.adobe.com/Flows/1.0/">
]>
<svg version="1.1"
	 xmlns="http://www.w3.org/2000/svg" xmlns:xlink="http://www.w3.org/1999/xlink" xmlns:a="http://ns.adobe.com/AdobeSVGViewerExtensions/3.0/"
	 x="0px" y="0px" width="100px" height="100px" viewBox="-0.347 -0.447 100 100" enable-background="new -0.347 -0.447 100 100"
	 xml:space="preserve">
<defs>
</defs>
<path d="M55.953,39.553h-10v-10c0.226-1.836-1.08-3.508-2.917-3.733c-1.836-0.226-3.508,1.08-3.733,2.917
	c-0.033,0.271-0.033,0.545,0,0.817v10h-10c-1.822-0.028-3.322,1.427-3.35,3.249c0,0.034,0,0.067,0,0.101c0,1.822,1.477,3.3,3.3,3.3
	c0.017,0,0.034,0,0.05,0h10v10c0.001,1.85,1.502,3.349,3.353,3.348c1.848-0.002,3.346-1.5,3.348-3.348v-10h10
	c1.822,0.028,3.322-1.427,3.35-3.25c0-0.017,0.001-0.034,0.001-0.05c0.028-1.822-1.426-3.323-3.248-3.351
	C56.055,39.551,56.004,39.552,55.953,39.553z"/>
<path d="M97.604,87.603l-15-15h-5.25l-1.75-1.75c15.409-18.033,13.283-45.145-4.75-60.554c-18.034-15.41-45.145-13.283-60.555,4.75
	s-13.283,45.145,4.75,60.554c16.068,13.73,39.737,13.73,55.805,0l1.75,1.75v5.2l15,15c2.626,2.762,6.993,2.871,9.755,0.245
	c0.084-0.079,0.166-0.161,0.245-0.245l0,0c2.747-2.641,2.834-7.009,0.194-9.756C97.733,87.731,97.669,87.667,97.604,87.603z
	 M8.453,42.603c0.028-18.999,15.452-34.377,34.45-34.35c18.998,0.027,34.377,15.451,34.35,34.45
	c-0.027,18.979-15.42,34.35-34.399,34.35s-34.373-15.371-34.4-34.35V42.603z"/>
</svg>
