<?xml version="1.0" encoding="utf-8"?>
<!-- Generator: Adobe Illustrator 22.1.0, SVG Export Plug-In . SVG Version: 6.00 Build 0)  -->
<svg version="1.1" id="Layer_1" xmlns="http://www.w3.org/2000/svg" xmlns:xlink="http://www.w3.org/1999/xlink" x="0px" y="0px"
	 viewBox="0 0 100 100" width="100px" height="100px" style="enable-background:new 0 0 100 100;" xml:space="preserve">
<path d="M79,37v-5.5c0-16-13-29-29-29s-29,13-29,29V37c-6.5,1-11,6-11,12.5v35c0,7,6,13,14,13h52c7.5,0,14-6,14-13v-35
	C90,43,85,38,79,37z M50,12.5c10.5,0,19,8.5,19,19v5H31v-5C31,21,39.5,12.5,50,12.5z M80,84.5c0,1.5-2,3-4,3H24c-2,0-4-1.5-4-3v-35
	c0-1.5,2-3,4-3h52c2,0,4,1.5,4,3V84.5z"/>
</svg>
