<?xml version="1.0" encoding="utf-8"?>
<!-- Generator: Adobe Illustrator 22.1.0, SVG Export Plug-In . SVG Version: 6.00 Build 0)  -->
<svg version="1.1" id="Layer_3" xmlns="http://www.w3.org/2000/svg" xmlns:xlink="http://www.w3.org/1999/xlink" x="0px" y="0px" width="100px" height="100px"
	 viewBox="0 0 100 100" style="enable-background:new 0 0 100 100;" xml:space="preserve">
<title>ico_tmII_Artboard 38</title>
<path class="st0" d="M57.5,50L88,19.5c2.1-2.1,2.1-5.4,0-7.5s-5.4-2.1-7.5,0L50,42.6L19.5,12.1c-2.1-2.1-5.4-2.1-7.5,0
	s-2.1,5.4,0,7.5L42.6,50L12.1,80.5c-2.1,2-2.1,5.4-0.1,7.4c1,1,2.4,1.6,3.8,1.6c1.4,0,2.7-0.5,3.7-1.5L50,57.5L80.5,88
	c1,1,2.3,1.5,3.7,1.5c2.9,0,5.3-2.3,5.3-5.2c0-1.4-0.6-2.8-1.6-3.8L57.5,50z"/>
</svg>
