<?xml version="1.0" encoding="utf-8"?>
<!-- Generator: Adobe Illustrator 15.1.0, SVG Export Plug-In . SVG Version: 6.00 Build 0)  -->
<!DOCTYPE svg PUBLIC "-//W3C//DTD SVG 1.1//EN" "http://www.w3.org/Graphics/SVG/1.1/DTD/svg11.dtd">
<svg version="1.1" id="Layer_1" xmlns="http://www.w3.org/2000/svg" xmlns:xlink="http://www.w3.org/1999/xlink" x="0px" y="0px"
	 width="100px" height="100px" viewBox="0 0 100 100" enable-background="new 0 0 100 100" xml:space="preserve">
<path d="M96.244,45.325C93.686,20.815,71.719,3.059,47.239,5.646c-0.001,0-0.003,0-0.005,0c-13.791,1.5-26.065,9.303-33.324,21.108
	l-1-9.49c-0.364-2.585-2.767-4.395-5.352-4.029c-2.453,0.358-4.221,2.538-4.044,4.996l2.363,22.515
	c0.266,2.405,2.273,4.225,4.712,4.225c0.146,0.005,0.322,0.005,0.498,0l22.493-2.364c2.625-0.276,4.525-2.634,4.219-5.229
	c-0.276-2.626-2.634-4.526-5.23-4.22l-12.171,1.278c5.358-10.77,15.845-18.082,27.796-19.396
	c19.332-2.038,36.599,11.955,38.609,31.284c2.068,19.3-11.985,36.569-31.254,38.638c-16.577,1.73-32.104-8.432-37.151-24.321
	c-0.812-2.464-3.486-3.827-5.981-3.016c-2.464,0.752-3.857,3.458-3.045,5.921c5.945,18.514,23.113,31.05,42.541,31.062
	c1.549,0,3.097-0.086,4.642-0.198C81.07,91.787,98.861,69.812,96.244,45.325z"/>
</svg>
