<?xml version="1.0" encoding="utf-8"?>
<!-- Generator: Adobe Illustrator 22.1.0, SVG Export Plug-In . SVG Version: 6.00 Build 0)  -->
<svg version="1.1" id="Layer_1" xmlns="http://www.w3.org/2000/svg" xmlns:xlink="http://www.w3.org/1999/xlink" x="0px" y="0px"
	 viewBox="0 0 100 100" width="100px" height="100px" style="enable-background:new 0 0 100 100;" xml:space="preserve">
<g>
	<path d="M86.3,21.6l-5-5c-3.5-3.5-7.5-5-11.5-5s-8,1.5-11,4.5l-53,53c-1,1-1.5,2.5-1.5,4v20c0,3,2.5,5,5,5h20
		c1.5,0,2.5-0.5,3.5-1.5l53.5-53C92.3,37.1,92.3,27.6,86.3,21.6z M79.3,36.1l-52,52h-13v-13l51.5-52c1.5-1,2.5-1.5,4-1.5
		s3,0.5,4,1.5l5,5C81.3,30.6,81.3,34.1,79.3,36.1z"/>
	<path d="M90.8,88.2H65.3c-2.5,0-5,2-5,5c0,2.5,2,5,5,5h25.5c2.5,0,5-2,5-5C95.8,90.7,93.8,88.2,90.8,88.2z"/>
</g>
</svg>
