<?xml version="1.0" encoding="utf-8"?>
<!-- Generator: Adobe Illustrator 15.1.0, SVG Export Plug-In  -->
<!DOCTYPE svg PUBLIC "-//W3C//DTD SVG 1.1//EN" "http://www.w3.org/Graphics/SVG/1.1/DTD/svg11.dtd" [
	<!ENTITY ns_flows "http://ns.adobe.com/Flows/1.0/">
]>
<svg version="1.1"
	 xmlns="http://www.w3.org/2000/svg" xmlns:xlink="http://www.w3.org/1999/xlink" xmlns:a="http://ns.adobe.com/AdobeSVGViewerExtensions/3.0/"
	 x="0px" y="0px" width="100px" height="100px" viewBox="0 0 100 100" enable-background="new 0 0 100 100" xml:space="preserve">
<defs>
</defs>
<path d="M71.37,4.737l8.052,8.053l-12.104,12c-2.154,2.191-2.154,5.704,0,7.895l0,0c2.19,2.153,5.703,2.153,7.895,0l12-12.105
	l8.053,8.053c1.103,1.075,2.869,1.053,3.943-0.05c0.51-0.521,0.793-1.221,0.793-1.95V2.79c0.029-1.511-1.172-2.76-2.684-2.79
	c-0.035,0-0.07,0-0.105,0H73.37c-1.541-0.001-2.791,1.246-2.793,2.787C70.577,3.516,70.86,4.216,71.37,4.737z M4.737,28.632
	l8.053-8.053l12,12.105c2.191,2.153,5.704,2.153,7.895,0l0,0c2.153-2.191,2.153-5.704,0-7.895l-12.105-12l8.052-8.053
	c1.076-1.103,1.053-2.869-0.05-3.945C28.061,0.284,27.361,0,26.632,0H2.79C1.279-0.029,0.03,1.172,0,2.684C0,2.719,0,2.754,0,2.79
	v23.842c-0.001,1.541,1.246,2.791,2.787,2.792C3.516,29.425,4.216,29.141,4.737,28.632z M28.632,95.264l-8.052-8.053l12.105-12
	c2.153-2.191,2.153-5.704,0-7.895l0,0c-2.191-2.154-5.704-2.154-7.895,0l-12,12.104l-8.053-8.053
	c-1.103-1.075-2.869-1.053-3.944,0.05C0.284,71.94,0,72.64,0,73.369v23.843c-0.029,1.511,1.172,2.76,2.683,2.789
	c0.036,0,0.071,0,0.106,0h23.842c1.541,0.002,2.791-1.246,2.792-2.787C29.425,96.485,29.141,95.786,28.632,95.264z M95.264,71.369
	l-8.053,8.053l-12-12.104c-2.191-2.154-5.704-2.154-7.895,0l0,0c-2.154,2.19-2.154,5.703,0,7.895l12.104,12l-8.052,8.053
	c-1.076,1.103-1.054,2.869,0.049,3.944c0.521,0.509,1.222,0.793,1.951,0.792h23.842c1.511,0.029,2.76-1.172,2.789-2.684
	c0-0.035,0-0.07,0-0.105V73.369c0.002-1.54-1.246-2.79-2.787-2.792C96.485,70.576,95.786,70.86,95.264,71.369z"/>
</svg>
