<?xml version="1.0" encoding="utf-8"?>
<!-- Generator: Adobe Illustrator 22.1.0, SVG Export Plug-In . SVG Version: 6.00 Build 0)  -->
<svg version="1.1" id="Warstwa_1" xmlns="http://www.w3.org/2000/svg" xmlns:xlink="http://www.w3.org/1999/xlink" x="0px" y="0px"
	 viewBox="0 0 100 100" width="100px" height="100px" style="enable-background:new 0 0 100 100;" xml:space="preserve">
<title>ico_tm _14</title>
<g id="Layer_2">
	<path class="st0" d="M97.7,30.1c0-2.6-1-5.1-2.9-7L79.3,7.4c-3.9-3.9-10.1-3.9-14,0l-45,45.3c-1.2,1.2-1.9,2.9-1.9,4.6
		c0,1.2,0.3,2.3,0.9,3.3L13.9,66c-1.2,1.2-1.8,2.7-1.8,4.4c0,0.8,0.1,1.5,0.4,2.2l-7.7,7.8c-2.1,2.1-2,5.5,0.1,7.5
		c0.4,0.4,1,0.8,1.5,1.1l14,6.2l0,0c0.7,0.3,1.4,0.5,2.1,0.5c1.4,0,2.7-0.6,3.7-1.5l3.8-3.9c0.7,0.3,1.5,0.4,2.2,0.4
		c1.6,0,3.2-0.7,4.4-1.8l5.4-5.4c2.5,1.5,5.8,1.1,7.8-1l45-45.3C96.7,35.2,97.7,32.7,97.7,30.1z M22.4,90L8.8,84l7-7.2l4.9,4.9
		l4.9,4.9L22.4,90z M32.7,85c-0.3,0.3-0.7,0.3-1,0l-7-7l-7-7c-0.1-0.1-0.2-0.3-0.2-0.5c0-0.2,0.1-0.4,0.2-0.5l5.3-5.3l14.9,15
		L32.7,85z M45.9,78.6c-0.4,0.4-1,0.4-1.4,0L24.2,58c-0.2-0.2-0.3-0.5-0.3-0.7c0-0.3,0.1-0.5,0.3-0.7l34.1-34.3l21.8,21.9L45.9,78.6
		z M91,33.1l-7,7L62.1,18.5l7-7c1.7-1.7,4.4-1.7,6.2,0l15.6,15.7C92.5,28.9,92.5,31.4,91,33.1z"/>
	<path class="st0" d="M94.9,90H57.2c-1.5,0.2-2.6,1.5-2.4,3.1c0.1,1.3,1.2,2.3,2.4,2.4h37.7c1.5-0.2,2.6-1.5,2.4-3.1
		C97.2,91.2,96.2,90.2,94.9,90z"/>
</g>
</svg>
