<?xml version="1.0" encoding="utf-8"?>
<!-- Generator: Adobe Illustrator 22.1.0, SVG Export Plug-In . SVG Version: 6.00 Build 0)  -->
<svg version="1.1" id="Layer_1" xmlns="http://www.w3.org/2000/svg" xmlns:xlink="http://www.w3.org/1999/xlink" x="0px" y="0px"
	 viewBox="0 0 100 100" width="100px" height="100px" style="enable-background:new 0 0 100 100;" xml:space="preserve">
<g>
	<path class="st0" d="M80,69.5c2.6,0,6-1.1,7.9-6.3c0.9-2.5,8.5-25.6,10.2-31.7c0.9-3.3,0.8-5.8-0.5-7.4C96,22,93.5,22,92.4,22H21.8
		c-1.2-5-2.1-8.5-2.3-9.2C18.2,8,14.3,7,12.3,7.1H3.9c-1.4,0-2.5,1.1-2.5,2.5s1.1,2.5,2.5,2.5h8.5c0.1,0,0.1,0,0.2,0
		c0.4,0,1.6,0.1,2.1,2c0.6,2.2,9.8,40.1,14.7,60.3c-3.5,1.8-5.9,5.4-5.9,9.6c0,6,4.9,10.9,10.9,10.9c5.2,0,9.5-3.6,10.6-8.4h21.6
		c1.1,4.8,5.4,8.4,10.6,8.4c6,0,10.9-4.9,10.9-10.9s-4.9-10.9-10.9-10.9c-5.1,0-9.4,3.5-10.5,8.3H45c-1.2-4.8-5.4-8.3-10.5-8.3
		c-0.1,0-0.1,0-0.2,0c-0.2-0.7-0.5-2-0.9-3.7H80V69.5z M77.2,78.2c3.2,0,5.9,2.6,5.9,5.9S80.5,90,77.2,90s-5.9-2.6-5.9-5.9
		S74,78.2,77.2,78.2z M40.3,84c0,3.2-2.6,5.9-5.9,5.9s-5.9-2.6-5.9-5.9s2.6-5.9,5.9-5.9S40.3,80.8,40.3,84z M92.3,27
		c1,0,1.2,0.1,1.2,0.1s0.3,0.7-0.3,3.1c-1.7,6-9.4,29.2-10.1,31.3c-0.9,2.6-2.1,3-3.1,3H32.1c-2.4-10-6.3-25.9-9.1-37.5
		C23,27,92.3,27,92.3,27z"/>
	<path class="st0" d="M74.3,59.4c1.4,0,2.5-1.1,2.5-2.5V34.3c0-1.4-1.1-2.5-2.5-2.5s-2.5,1.1-2.5,2.5v22.6
		C71.8,58.3,72.9,59.4,74.3,59.4z"/>
	<path class="st0" d="M58.5,59.4c1.4,0,2.5-1.1,2.5-2.5V34.3c0-1.4-1.1-2.5-2.5-2.5S56,32.9,56,34.3v22.6
		C56,58.3,57.1,59.4,58.5,59.4z"/>
	<path class="st0" d="M42.6,59.4c1.4,0,2.5-1.1,2.5-2.5V34.3c0-1.4-1.1-2.5-2.5-2.5s-2.5,1.1-2.5,2.5v22.6
		C40.1,58.3,41.2,59.4,42.6,59.4z"/>
</g>
</svg>
