<?xml version="1.0" encoding="utf-8"?>
<!-- Generator: Adobe Illustrator 22.1.0, SVG Export Plug-In . SVG Version: 6.00 Build 0)  -->
<svg version="1.1" id="Layer_2" xmlns="http://www.w3.org/2000/svg" xmlns:xlink="http://www.w3.org/1999/xlink" x="0px" y="0px"
	 viewBox="0 0 100 100" width="100px" height="100px" style="enable-background:new 0 0 100 100;" xml:space="preserve">
<path class="st0" d="M50,2.9C24,2.9,2.9,24,2.9,50S24,97.1,50,97.1S97.1,76,97.1,50S76.1,2.9,50,2.9z M68.8,54H54v14.7
	c0,2.2-1.8,4.1-4,4.1s-4-1.8-4-4.1V54H31.2c-2.2,0-4.1-1.8-4.1-4s1.8-4,4.1-4H46V31.2c0-2.2,1.8-4.1,4-4.1s4,1.8,4,4.1V46h14.7
	c2.2,0,4.1,1.8,4.1,4C72.8,52.2,71,54,68.8,54z"/>
</svg>
