<?xml version="1.0" encoding="utf-8"?>
<!-- Generator: Adobe Illustrator 15.1.0, SVG Export Plug-In  -->
<!DOCTYPE svg PUBLIC "-//W3C//DTD SVG 1.1//EN" "http://www.w3.org/Graphics/SVG/1.1/DTD/svg11.dtd" [
	<!ENTITY ns_flows "http://ns.adobe.com/Flows/1.0/">
]>
<svg version="1.1"
	 xmlns="http://www.w3.org/2000/svg" xmlns:xlink="http://www.w3.org/1999/xlink" xmlns:a="http://ns.adobe.com/AdobeSVGViewerExtensions/3.0/"
	 x="0px" y="0px" width="100px" height="100px" viewBox="-4.263 -0.31 100 100" enable-background="new -4.263 -0.31 100 100"
	 xml:space="preserve">
<defs>
</defs>
<path d="M85.153,16.356c-3.496-0.069-6.388,2.709-6.457,6.207c0,0.015,0,0.029,0,0.043V43.44l0,0
	c-0.329,1.15-1.528,1.817-2.68,1.488c-0.719-0.206-1.282-0.769-1.488-1.488l0,0V10.106c-0.285-3.555-3.4-6.205-6.955-5.919
	c-3.158,0.254-5.665,2.761-5.92,5.919V43.44l0,0c-0.328,1.15-1.527,1.817-2.678,1.488c-0.72-0.206-1.283-0.769-1.488-1.488l0,0V5.94
	c-0.286-3.555-3.4-6.206-6.956-5.919c-3.157,0.254-5.665,2.761-5.919,5.919v37.5c-0.329,1.15-1.528,1.817-2.678,1.488
	c-0.72-0.206-1.283-0.769-1.488-1.488v-25c-0.287-3.555-3.401-6.206-6.956-5.919c-3.158,0.254-5.665,2.761-5.919,5.919v47.541
	L9.528,56.19c-2.472-1.375-5.549-1.006-7.625,0.916l0,0c-2.451,2.332-2.547,6.209-0.215,8.66c0.07,0.074,0.142,0.146,0.215,0.215
	L31.07,94.69c3.192,3.172,7.5,4.967,12,5h31.333c9.342,0.139,17.028-7.321,17.168-16.663c0-0.001,0-0.003,0-0.003V22.606
	c-0.047-3.498-2.919-6.295-6.416-6.25C85.155,16.356,85.154,16.356,85.153,16.356z"/>
</svg>
