<?xml version="1.0" encoding="utf-8"?>
<!-- Generator: Adobe Illustrator 15.1.0, SVG Export Plug-In  -->
<!DOCTYPE svg PUBLIC "-//W3C//DTD SVG 1.1//EN" "http://www.w3.org/Graphics/SVG/1.1/DTD/svg11.dtd" [
	<!ENTITY ns_flows "http://ns.adobe.com/Flows/1.0/">
]>
<svg version="1.1"
	 xmlns="http://www.w3.org/2000/svg" xmlns:xlink="http://www.w3.org/1999/xlink" xmlns:a="http://ns.adobe.com/AdobeSVGViewerExtensions/3.0/"
	 x="0px" y="0px" width="100px" height="100px" viewBox="-0.347 -0.447 100 100" enable-background="new -0.347 -0.447 100 100"
	 xml:space="preserve">
<defs>
</defs>
<path d="M55.953,39.553h-26.6c-1.823-0.028-3.322,1.427-3.35,3.249c0,0.034,0,0.067,0,0.101c0,1.822,1.477,3.3,3.299,3.3
	c0.017,0,0.034,0,0.051,0h26.6c1.823,0.028,3.322-1.427,3.35-3.25c0.001-0.017,0.001-0.034,0.001-0.05
	c0.027-1.822-1.428-3.322-3.25-3.35C56.021,39.553,55.987,39.553,55.953,39.553z"/>
<path d="M97.604,87.603l-15-15h-5.25l-1.75-1.75c15.409-18.033,13.283-45.145-4.75-60.554c-18.034-15.41-45.145-13.283-60.555,4.75
	s-13.283,45.145,4.75,60.554c16.068,13.73,39.737,13.73,55.805,0l1.75,1.75v5.2l15,15c2.626,2.762,6.993,2.871,9.755,0.245
	c0.084-0.079,0.166-0.161,0.245-0.245l0,0c2.747-2.641,2.834-7.009,0.194-9.756C97.733,87.731,97.669,87.667,97.604,87.603z
	 M42.854,77.053c-18.971-0.027-34.328-15.43-34.3-34.4c0.028-18.971,15.429-34.328,34.4-34.3c18.952,0.027,34.3,15.398,34.3,34.35
	C77.226,61.682,61.833,77.053,42.854,77.053z"/>
</svg>
