<?xml version="1.0" encoding="utf-8"?>
<!-- Generator: Adobe Illustrator 15.0.0, SVG Export Plug-In  -->
<!DOCTYPE svg PUBLIC "-//W3C//DTD SVG 1.1//EN" "http://www.w3.org/Graphics/SVG/1.1/DTD/svg11.dtd" [
	<!ENTITY ns_flows "http://ns.adobe.com/Flows/1.0/">
]>
<svg version="1.1"
	 xmlns="http://www.w3.org/2000/svg" xmlns:xlink="http://www.w3.org/1999/xlink" xmlns:a="http://ns.adobe.com/AdobeSVGViewerExtensions/3.0/"
	 x="0px" y="0px" width="100px" height="100px" viewBox="-0.876 -3.841 100 100" enable-background="new -0.876 -3.841 100 100"
	 xml:space="preserve">
<defs>
</defs>
<path d="M49.124,21.424c-16.157,0.045-29.22,13.177-29.177,29.336c0.031,11.029,6.264,21.106,16.121,26.063v2.426
	c0,7.209,5.845,13.055,13.056,13.055c7.209,0,13.056-5.846,13.056-13.055v-2.383c14.438-7.253,20.259-24.84,13.006-39.276
	c-4.952-9.857-15.029-16.09-26.062-16.12V21.424z M55.683,69.079c-1.935,0.694-3.23,2.527-3.236,4.581v5.632
	c0,1.836-1.486,3.322-3.322,3.322S45.8,81.127,45.8,79.292V73.66c-0.006-2.054-1.299-3.887-3.235-4.581
	c-10.165-3.62-15.469-14.796-11.847-24.961c3.622-10.165,14.798-15.469,24.964-11.847c10.163,3.622,15.469,14.798,11.846,24.962
	C65.561,62.76,61.209,67.111,55.683,69.079z"/>
<path d="M81.492,74.618c-1.9-1.897-4.986-1.897-6.884,0.003c-1.903,1.901-1.903,4.983,0,6.888l2.377,2.364
	c1.9,1.895,4.974,1.895,6.875,0c1.9-1.897,1.903-4.98,0.003-6.881c0-0.003,0-0.003-0.003-0.007L81.492,74.618z"/>
<path d="M93.382,44.257h-3.341c-2.684,0-4.864,2.179-4.864,4.863c0,2.69,2.181,4.87,4.864,4.87h3.341
	c2.689,0,4.866-2.18,4.866-4.87C98.248,46.436,96.071,44.257,93.382,44.257z"/>
<path d="M78.051,25.063c1.302-0.015,2.545-0.554,3.441-1.497L83.86,21.2c1.995-1.799,2.155-4.875,0.355-6.872
	c-1.799-1.997-4.876-2.157-6.871-0.357c-0.126,0.112-0.243,0.231-0.359,0.357l-2.407,2.426c-1.895,1.917-1.873,5.008,0.043,6.902
	c0.909,0.894,2.125,1.398,3.398,1.406H78.051z"/>
<path d="M49.124,13.069c2.687,0,4.866-2.178,4.866-4.865l0,0V4.865C53.99,2.179,51.811,0,49.124,0
	s-4.867,2.179-4.867,4.865v3.339C44.257,10.891,46.438,13.069,49.124,13.069z"/>
<path d="M16.754,23.625c1.887,1.902,4.959,1.915,6.861,0.026c0.009-0.008,0.019-0.017,0.026-0.026
	c1.887-1.902,1.887-4.969,0-6.872l-2.38-2.366c-1.997-1.799-5.074-1.64-6.873,0.356c-1.667,1.852-1.667,4.664,0,6.516L16.754,23.625
	z"/>
<path d="M8.206,44.257H4.867C2.179,44.257,0,46.436,0,49.121c0,2.69,2.179,4.87,4.867,4.87h3.339
	c2.687,0,4.865-2.18,4.865-4.87C13.071,46.436,10.893,44.257,8.206,44.257z"/>
<path d="M16.754,74.618l-2.366,2.367c-1.901,1.901-1.904,4.98-0.005,6.881c0.002,0.004,0.003,0.007,0.005,0.007
	c1.9,1.895,4.974,1.895,6.873,0l2.41-2.38c1.902-1.9,1.902-4.983,0-6.887c-1.902-1.904-4.985-1.904-6.887,0l0,0L16.754,74.618z"/>
</svg>
