<?xml version="1.0" encoding="utf-8"?>
<!-- Generator: Adobe Illustrator 15.0.0, SVG Export Plug-In  -->
<!DOCTYPE svg PUBLIC "-//W3C//DTD SVG 1.1//EN" "http://www.w3.org/Graphics/SVG/1.1/DTD/svg11.dtd" [
	<!ENTITY ns_flows "http://ns.adobe.com/Flows/1.0/">
]>
<svg version="1.1"
	 xmlns="http://www.w3.org/2000/svg" xmlns:xlink="http://www.w3.org/1999/xlink" xmlns:a="http://ns.adobe.com/AdobeSVGViewerExtensions/3.0/"
	 x="0px" y="0px" width="100px" height="100px" viewBox="-2.009 -9.985 100 100" enable-background="new -2.009 -9.985 100 100"
	 xml:space="preserve">
<defs>
</defs>
<path d="M95.947,8.022C95.947,3.639,92.39,0,87.923,0h-79.9C3.639,0,0,3.556,0,8.022v63.937
	c0,4.384,3.557,8.023,8.023,8.023h79.984c4.383,0,8.021-3.556,8.021-8.023V8.022H95.947z M8.023,72.042V8.022h79.984v63.937H8.023
	V72.042z"/>
<path d="M67.825,45.078V39.04l0,0c0-1.241-0.497-2.399-1.572-3.226L51.861,24.979V18.94v-3.97h-8.023v10.009h0.083
	L29.528,35.814c-1.076,0.827-1.572,1.985-1.572,3.226l0,0v6.038l-8.685,6.533c-1.737,1.325-2.15,3.807-0.827,5.625
	c0.745,1.075,1.985,1.572,3.226,1.572c0.828,0,1.655-0.249,2.399-0.825l7.857-5.958l7.858,5.958
	c0.745,0.576,1.572,0.825,2.398,0.825c1.241,0,2.399-0.578,3.227-1.572c1.323-1.736,0.992-4.3-0.827-5.625l-8.685-6.533v-4.136
	l11.91-8.933l11.91,8.933v4.136l-8.685,6.533c-1.737,1.325-2.151,3.807-0.828,5.625c0.746,1.075,1.986,1.572,3.227,1.572
	c0.828,0,1.655-0.249,2.398-0.825l7.858-5.958l7.857,5.958c0.745,0.576,1.572,0.825,2.4,0.825c1.238,0,2.398-0.578,3.225-1.572
	c1.323-1.736,0.992-4.3-0.826-5.625L67.825,45.078z"/>
</svg>
