<?xml version="1.0" encoding="utf-8"?>
<!-- Generator: Adobe Illustrator 15.0.0, SVG Export Plug-In . SVG Version: 6.00 Build 0)  -->
<!DOCTYPE svg PUBLIC "-//W3C//DTD SVG 1.1//EN" "http://www.w3.org/Graphics/SVG/1.1/DTD/svg11.dtd">
<svg version="1.1" id="Warstwa_1" xmlns="http://www.w3.org/2000/svg" xmlns:xlink="http://www.w3.org/1999/xlink" x="0px" y="0px"
	 width="100px" height="100px" viewBox="0 0 100 100" enable-background="new 0 0 100 100" xml:space="preserve">
<path d="M82.279,0l-4.512,6.977c6.094,3.858,11.295,8.972,15.256,15L100,17.535C95.41,10.494,89.367,4.516,82.279,0z
	 M22.209,6.977L17.721,0C10.627,4.509,4.584,10.489,0,17.535l6.977,4.442C10.929,15.95,16.123,10.836,22.209,6.977z M50.116,8.302
	C27.211,8.134,8.505,26.561,8.326,49.465c0.023,10.534,4.104,20.653,11.395,28.256l-7.232,7.141l5.907,5.836l7.628-7.557
	c14.401,10.063,33.553,10.063,47.953,0l7.629,7.557l5.906-5.836l-7.232-7.141c7.291-7.603,11.373-17.722,11.396-28.256
	C91.521,26.588,72.877,8.152,50,8.255L50.116,8.302z M50.116,82.488C31.904,82.359,17.245,67.491,17.373,49.28
	c0.128-18.213,14.996-32.873,33.209-32.744C68.686,16.664,83.3,31.362,83.326,49.465C83.211,67.766,68.301,82.52,50,82.441
	L50.116,82.488z M63.721,34.186L49.558,48.14l-13.791-9.861c-1.859-1.34-4.451-0.936-5.814,0.907
	c-1.338,1.838-0.932,4.413,0.906,5.75c0.008,0.006,0.016,0.012,0.024,0.017l16.674,11.931c0.709,0.517,1.565,0.792,2.442,0.791
	c1.104-0.006,2.163-0.438,2.953-1.21l16.651-16.488c1.611-1.585,1.633-4.176,0.049-5.788c-0.018-0.017-0.032-0.033-0.049-0.049
	C67.961,32.542,65.339,32.562,63.721,34.186z"/>
</svg>
