<?xml version="1.0" encoding="utf-8"?>
<!-- Generator: Adobe Illustrator 15.0.0, SVG Export Plug-In  -->
<!DOCTYPE svg PUBLIC "-//W3C//DTD SVG 1.1//EN" "http://www.w3.org/Graphics/SVG/1.1/DTD/svg11.dtd" [
	<!ENTITY ns_flows "http://ns.adobe.com/Flows/1.0/">
]>
<svg version="1.1"
	 xmlns="http://www.w3.org/2000/svg" xmlns:xlink="http://www.w3.org/1999/xlink" xmlns:a="http://ns.adobe.com/AdobeSVGViewerExtensions/3.0/"
	 x="0px" y="0px" width="100px" height="100px" viewBox="-0.657 -7.499 100 100" enable-background="new -0.657 -7.499 100 100"
	 xml:space="preserve">
<defs>
</defs>
<path d="M38.947,14.182c0-7.821-6.34-14.162-14.161-14.162S10.625,6.36,10.625,14.182
	c0,7.82,6.34,14.161,14.161,14.161c0.003,0,0.007,0,0.01,0C32.613,28.336,38.947,21.999,38.947,14.182z M24.796,21.257
	c-3.908,0-7.076-3.168-7.076-7.075c0-3.909,3.168-7.077,7.076-7.077c3.907,0,7.075,3.168,7.075,7.077
	C31.866,18.087,28.701,21.252,24.796,21.257z"/>
<path d="M20.943,36.857l-6.476-2.878L0.306,65.85c-0.794,1.785,0.008,3.877,1.794,4.671
	c0.453,0.2,0.943,0.306,1.439,0.306H17.7v14.171h7.085V63.75H9.018L20.943,36.857z"/>
<path d="M35.714,36.857l6.476-2.878L56.35,65.85c0.795,1.785-0.008,3.877-1.792,4.671
	c-0.457,0.204-0.95,0.308-1.451,0.306h-14.16v14.171h-7.076V63.75h15.768L35.714,36.857z"/>
<path d="M88.427,14.171C88.433,6.35,82.096,0.005,74.277,0c-7.821-0.005-14.165,6.331-14.172,14.151
	c-0.006,7.821,6.33,14.166,14.151,14.171c0.002,0,0.006,0,0.01,0C82.08,28.312,88.412,21.983,88.427,14.171z M74.266,21.247
	c-3.908,0-7.075-3.168-7.075-7.076s3.167-7.076,7.075-7.076c3.909,0,7.076,3.168,7.076,7.076l0,0
	C81.342,18.079,78.175,21.247,74.266,21.247L74.266,21.247L74.266,21.247z"/>
<polygon points="92.358,33.842 77.815,62.911 77.815,84.997 84.901,84.997 84.901,64.589 98.686,37.004 "/>
<polygon points="49.866,37.004 63.652,64.589 63.652,84.997 70.738,84.997 70.738,62.911 56.203,33.842 "/>
</svg>
