<?xml version="1.0" encoding="utf-8"?>
<!-- Generator: Adobe Illustrator 15.0.0, SVG Export Plug-In  -->
<!DOCTYPE svg PUBLIC "-//W3C//DTD SVG 1.1//EN" "http://www.w3.org/Graphics/SVG/1.1/DTD/svg11.dtd" [
	<!ENTITY ns_flows "http://ns.adobe.com/Flows/1.0/">
]>
<svg version="1.1"
	 xmlns="http://www.w3.org/2000/svg" xmlns:xlink="http://www.w3.org/1999/xlink" xmlns:a="http://ns.adobe.com/AdobeSVGViewerExtensions/3.0/"
	 x="0px" y="0px" width="100px" height="100px" viewBox="-6.938 -1.195 100 100" enable-background="new -6.938 -1.195 100 100"
	 xml:space="preserve">
<defs>
</defs>
<rect x="55.978" y="43.459" width="8.615" height="8.613"/>
<rect x="38.761" y="43.459" width="8.615" height="8.613"/>
<rect x="21.532" y="43.459" width="8.615" height="8.613"/>
<path d="M77.509,0H8.616C3.857,0,0,3.857,0,8.615l0,0v80.472c0.056,4.721,3.896,8.518,8.616,8.524h68.894
	c4.755-0.007,8.609-3.859,8.614-8.617V8.569C86.1,3.829,82.25,0,77.509,0z M77.509,8.615v19.76H8.616V8.569L77.509,8.615z
	 M8.616,89.086V37h68.894v52.04L8.616,89.086z"/>
<path d="M43.063,58.362c-7.277,0-13.178,5.898-13.177,13.177c0,7.278,5.899,13.177,13.177,13.177
	c7.276,0,13.179-5.898,13.179-13.177c0-0.012,0-0.021,0-0.035C56.213,64.242,50.325,58.367,43.063,58.362z M43.063,76.168
	c-2.564,0.007-4.647-2.067-4.653-4.63c-0.007-2.563,2.067-4.648,4.631-4.652c2.564-0.008,4.647,2.066,4.655,4.632
	c0,0.005,0,0.014,0,0.021C47.695,74.097,45.621,76.168,43.063,76.168L43.063,76.168z"/>
</svg>
