<?xml version="1.0" encoding="utf-8"?>
<!-- Generator: Adobe Illustrator 15.0.0, SVG Export Plug-In . SVG Version: 6.00 Build 0)  -->
<!DOCTYPE svg PUBLIC "-//W3C//DTD SVG 1.1//EN" "http://www.w3.org/Graphics/SVG/1.1/DTD/svg11.dtd">
<svg version="1.1" id="Warstwa_1" xmlns="http://www.w3.org/2000/svg" xmlns:xlink="http://www.w3.org/1999/xlink" x="0px" y="0px"
	 width="100px" height="100px" viewBox="0 0 100 100" enable-background="new 0 0 100 100" xml:space="preserve">
<path d="M79.887,0v9.157H8.444V0H0v98.305h8.444v-9.637h71.443v9.637h8.446V0H79.887z M79.887,80.213H8.444V17.612
	h71.443V80.213z"/>
<path d="M30.503,71.423c1.195,0.673,2.661,0.651,3.835-0.063L65.96,52.204c1.793-1.087,2.364-3.42,1.278-5.213
	c-0.316-0.522-0.754-0.961-1.278-1.278L34.338,26.484c-1.791-1.09-4.125-0.522-5.215,1.268c-0.363,0.596-0.554,1.28-0.553,1.978
	v38.386C28.572,69.486,29.309,70.75,30.503,71.423z M36.159,36.475L56.67,48.918L36.159,61.361V36.475z"/>
</svg>
