<?xml version="1.0" encoding="utf-8"?>
<!-- Generator: Adobe Illustrator 15.0.0, SVG Export Plug-In . SVG Version: 6.00 Build 0)  -->
<!DOCTYPE svg PUBLIC "-//W3C//DTD SVG 1.1//EN" "http://www.w3.org/Graphics/SVG/1.1/DTD/svg11.dtd">
<svg version="1.1" id="Warstwa_1" xmlns="http://www.w3.org/2000/svg" xmlns:xlink="http://www.w3.org/1999/xlink" x="0px" y="0px"
	 width="100px" height="100px" viewBox="0 0 100 100" enable-background="new 0 0 100 100" xml:space="preserve">
<path d="M0,12.377v28.865C0,69.7,19.218,91.755,45.358,98.975C71.51,91.755,90.715,69.7,90.715,41.243V12.377
	C62.73-4.126,27.987-4.126,0,12.377z M82.48,41.244c0,22.917-14.493,41.947-37.122,49.133C22.729,83.223,8.235,64.159,8.235,41.244
	V17.245C31.53,5.25,59.186,5.25,82.48,17.245V41.244L82.48,41.244z M27.695,42.402l-5.762,5.984l19.262,17.66l30.4-31.47
	l-5.927-5.729L40.998,54.389L27.695,42.402z"/>
</svg>
