<?xml version="1.0" encoding="utf-8"?>
<!-- Generator: Adobe Illustrator 15.0.0, SVG Export Plug-In . SVG Version: 6.00 Build 0)  -->
<!DOCTYPE svg PUBLIC "-//W3C//DTD SVG 1.1//EN" "http://www.w3.org/Graphics/SVG/1.1/DTD/svg11.dtd">
<svg version="1.1" id="Warstwa_1" xmlns="http://www.w3.org/2000/svg" xmlns:xlink="http://www.w3.org/1999/xlink" x="0px" y="0px"
	 width="100px" height="100px" viewBox="0 0 100 100" enable-background="new 0 0 100 100" xml:space="preserve">
<path d="M77.083,69.533l18.336-7.067l-2.614-6.728l-11.164,4.246L98.4,45.229l-4.809-5.433l-7.424,6.356l0.059-1.404
	l8.961-17.595l-6.48-3.318l-5.402,10.577l2.354-22.518l-7.24-0.769l-1.063,10.009l-0.869-0.866l-0.073-0.172L71.313,1l-7.028,1.923
	l2.674,9.999L65.9,12.337c-0.904-0.513-1.836-0.978-2.787-1.395c-1.857-0.74-3.969,0.151-4.73,2c-0.381,0.897-0.381,1.91,0,2.808
	c0.358,0.872,1.051,1.564,1.922,1.923c11.213,4.514,18.547,15.401,18.521,27.489c0,11.076-5.539,20.768-14.798,25.961
	c-1.754,0.99-2.37,3.21-1.381,4.965c0.645,1.143,1.854,1.85,3.168,1.85h20.289v-7.324h-9.48v-1.039L77.083,69.533z"/>
<path d="M38.104,17.672c1.854-0.743,2.755-2.847,2.012-4.7c-0.004-0.01-0.009-0.021-0.013-0.03
	c-0.759-1.854-2.869-2.75-4.73-2.009c-0.961,0.403-1.817,0.875-2.731,1.364l-1.066,0.587l0.317-1.144l2.317-8.817L27.181,1
	L21.96,20.421h-0.961l-0.961-9.394l-7.241,0.769l2.366,22.519l-5.385-10.51l-6.48,3.317l9.019,17.835v1.125l-0.856-0.693
	l-6.567-5.624L0,45.229l16.788,14.75L5.596,55.727L3.01,62.458l18.595,7.211l0.884,0.894h-1.211h-9.019v7.354h20.298
	c2.008-0.004,3.634-1.633,3.634-3.644c0.021-1.313-0.69-2.532-1.846-3.164c-9.27-5.151-14.797-14.854-14.797-25.96
	C19.531,33.059,26.88,22.174,38.104,17.672z"/>
<polygon points="52.833,28.998 45.556,28.998 45.556,33.161 38.796,33.161 38.796,40.44 45.556,40.44 45.556,53.968 
	38.796,53.968 38.796,61.248 59.986,61.248 59.986,53.968 52.833,53.968 "/>
</svg>
