<?xml version="1.0" encoding="utf-8"?>
<!-- Generator: Adobe Illustrator 15.0.0, SVG Export Plug-In . SVG Version: 6.00 Build 0)  -->
<!DOCTYPE svg PUBLIC "-//W3C//DTD SVG 1.1//EN" "http://www.w3.org/Graphics/SVG/1.1/DTD/svg11.dtd">
<svg version="1.1" id="Warstwa_1" xmlns="http://www.w3.org/2000/svg" xmlns:xlink="http://www.w3.org/1999/xlink" x="0px" y="0px"
	 width="100px" height="100px" viewBox="0 0 100 100" enable-background="new 0 0 100 100" xml:space="preserve">
<path d="M57.027,83.943c-1.56,0.977-3.314,1.596-5.141,1.813c-2.018,0.261-4.062-0.229-5.745-1.373
	c-1.427-1.003-3.116-1.567-4.86-1.627c-1.744,0.06-3.433,0.624-4.86,1.627c-1.683,1.146-3.726,1.634-5.744,1.373
	c-5.116-0.303-11.907-6.743-14.418-10.163l-0.279-0.371C7.794,64.037,5.375,54.293,8.794,46.037
	c4.651-11.047,17.768-10.977,21.791-9.698c5.675,1.791,9.744,2.628,9.93,2.674l0.745,0.14l0.581-0.116h0.465
	c0.71-0.008,1.404-0.218,2-0.605c1.768-0.442,4.442-1.139,7.627-2.139c3.51-0.85,7.178-0.778,10.65,0.209
	c1.938,0.525,3.938-0.589,4.512-2.512c0.525-1.907-0.595-3.878-2.502-4.403c-0.019-0.005-0.037-0.01-0.056-0.015
	c-4.858-1.319-9.979-1.319-14.838,0L47.654,30.2c1.944-4.729,5.247-8.775,9.489-11.628c1.672-1.032,2.19-3.225,1.157-4.897
	c-0.056-0.091-0.116-0.18-0.181-0.266c-1.169-1.637-3.432-2.04-5.094-0.907c-6.643,4.45-11.443,11.16-13.511,18.884
	c-1.651-0.396-3.977-1.023-6.697-1.884C25.12,27.06,8.166,28.618,2.05,43.315c-4.396,10.628-1.721,22.791,8.023,36.093l0.255,0.373
	c2.535,3.465,11.047,12.627,19.884,13.186c3.501,0.387,7.029-0.436,10-2.326c0.328-0.209,0.67-0.396,1.023-0.558
	c0.375,0.149,0.733,0.337,1.07,0.558c2.588,1.639,5.614,2.449,8.673,2.326h1.35c2.984-0.266,5.865-1.221,8.419-2.791
	c1.716-0.982,2.312-3.172,1.325-4.888c-0.008-0.015-0.016-0.028-0.022-0.042C61.004,83.523,58.777,82.945,57.027,83.943z"/>
<path d="M17.445,21.641c3.944,3.414,8.993,5.281,14.209,5.256c1.642,0.002,3.278-0.169,4.884-0.512l2.628-0.582
	l0.349-2.604c0.676-6.807-1.995-13.519-7.163-18c-5.291-4.462-12.367-6.184-19.116-4.651l-2.721,0.465l-0.232,2.651
	C9.59,10.467,12.265,17.179,17.445,21.641z M27.398,10.571c2.671,2.333,4.338,5.607,4.651,9.14
	c-3.577,0.096-7.061-1.148-9.768-3.488l0,0c-2.666-2.337-4.331-5.609-4.651-9.14C21.209,6.983,24.694,8.228,27.398,10.571z"/>
<path d="M97.12,75.596l-7.349-7.211c2.885-8.068,0.805-17.08-5.326-23.069c-8.922-8.651-23.102-8.651-32.023,0
	c-8.682,8.463-8.86,22.362-0.396,31.043c0.132,0.136,0.264,0.269,0.396,0.398c4.277,4.176,10.023,6.506,16,6.488
	c2.557-0.012,5.092-0.436,7.512-1.256l7.326,7.186c3.867,3.818,10.086,3.818,13.953,0c3.727-3.686,3.758-9.693,0.072-13.418
	C97.23,75.703,97.175,75.648,97.12,75.596z M57.584,71.688c-5.876-5.729-5.995-15.139-0.266-21.014
	c0.088-0.09,0.177-0.178,0.266-0.266c6.034-5.887,15.663-5.887,21.698,0c5.875,5.73,5.993,15.139,0.265,21.015
	c-0.087,0.089-0.176,0.179-0.265,0.265C73.238,77.551,63.628,77.551,57.584,71.688z M91.934,84.105
	c-0.979,0.928-2.511,0.928-3.488,0l-5.86-5.744c0.657-0.49,1.278-1.025,1.86-1.604c0.588-0.569,1.139-1.177,1.65-1.813l5.838,5.721
	c0.963,0.852,1.071,2.299,0.221,3.262C92.091,83.997,92.023,84.064,91.934,84.105z"/>
</svg>
