<?xml version="1.0" encoding="utf-8"?>
<!-- Generator: Adobe Illustrator 15.0.0, SVG Export Plug-In  -->
<!DOCTYPE svg PUBLIC "-//W3C//DTD SVG 1.1//EN" "http://www.w3.org/Graphics/SVG/1.1/DTD/svg11.dtd" [
	<!ENTITY ns_flows "http://ns.adobe.com/Flows/1.0/">
]>
<svg version="1.1"
	 xmlns="http://www.w3.org/2000/svg" xmlns:xlink="http://www.w3.org/1999/xlink" xmlns:a="http://ns.adobe.com/AdobeSVGViewerExtensions/3.0/"
	 x="0px" y="0px" width="100px" height="100px" viewBox="-1.595 -3.682 100 100" enable-background="new -1.595 -3.682 100 100"
	 xml:space="preserve">
<defs>
</defs>
<path d="M84.73,67.985l0.684,0.692l-0.684,0.694V67.985z M76.651,88.864l20.188-20.187L76.642,48.471l-5.712,5.714
	l10.454,10.454H60.506c-11.152,0.254-20.398-8.577-20.653-19.73c-0.254-11.151,8.578-20.397,19.73-20.652
	c0.306-0.006,0.614-0.006,0.923,0h20.878L70.93,34.713l5.712,5.711l20.196-20.227L76.651,0l-5.712,5.712l10.445,10.445H60.506
	C46.48,16.211,34.611,26.533,32.608,40.415H0v8.067h32.608c2.034,13.877,13.925,24.169,27.95,24.194h20.88L70.993,83.122
	L76.651,88.864z"/>
</svg>
