<?xml version="1.0" encoding="utf-8"?>
<!-- Generator: Adobe Illustrator 15.0.0, SVG Export Plug-In  -->
<!DOCTYPE svg PUBLIC "-//W3C//DTD SVG 1.1//EN" "http://www.w3.org/Graphics/SVG/1.1/DTD/svg11.dtd" [
	<!ENTITY ns_flows "http://ns.adobe.com/Flows/1.0/">
]>
<svg version="1.1"
	 xmlns="http://www.w3.org/2000/svg" xmlns:xlink="http://www.w3.org/1999/xlink" xmlns:a="http://ns.adobe.com/AdobeSVGViewerExtensions/3.0/"
	 x="0px" y="0px" width="100px" height="100px" viewBox="-8.961 -0.726 100 100" enable-background="new -8.961 -0.726 100 100"
	 xml:space="preserve">
<defs>
</defs>
<path d="M58.275,16.883c-4.104-4.515-8.618-9.439-13.953-15.595c-1.642-1.642-4.514-1.642-6.156-0.411
	c-1.642,1.642-2.051,4.104-0.41,5.746c5.334,6.155,9.848,11.081,13.954,15.595c17.235,18.877,21.75,23.803,21.75,35.704
	c0,9.438-4.925,19.697-12.312,26.264c0-0.819,0-1.641,0-2.461c0-5.336-2.052-10.671-5.745-14.364L40.628,50.944L26.265,67.36
	c-3.694,4.104-6.157,9.028-6.157,14.364c0,0.82,0,1.642,0,2.461C12.722,77.21,7.798,66.95,7.798,57.101
	c0-11.491,4.924-16.827,15.183-27.495c1.642-1.232,3.284-2.874,4.926-4.515l6.155,6.566c0.82,0.821,1.641,1.23,2.873,1.23
	c0.821,0,2.053-0.41,2.874-1.23c1.641-1.642,1.641-4.104,0.41-5.745c-0.821-0.821-9.029-9.44-9.85-10.26l0,0
	c-1.641-1.231-4.103-1.231-5.745,0.41c-2.462,2.873-4.924,5.745-7.387,8.208C6.977,35.35,0,42.737,0,57.51
	c0,16.827,11.901,34.883,27.086,40.63c0.41,0,0.821,0.409,1.641,0.409c1.641,0,3.283-0.82,3.693-2.463
	c0.41-1.23,0.41-2.872-0.411-4.103l0,0c-1.642-2.052-3.283-7.387-3.283-9.85c0-3.282,1.231-6.566,3.693-9.029l8.618-9.438
	l8.618,9.85c2.462,2.461,3.693,5.335,3.693,8.617c0,2.872-1.641,7.798-3.283,9.85l0,0c-0.82,1.23-1.231,2.463-0.41,4.103
	c0.82,1.643,2.053,2.463,3.693,2.463c0.411,0,0.82,0,1.642-0.409c15.594-6.156,27.086-23.393,27.086-39.809
	C82.078,42.737,75.512,35.761,58.275,16.883z"/>
</svg>
