<?xml version="1.0" encoding="utf-8"?>
<!-- Generator: Adobe Illustrator 15.0.0, SVG Export Plug-In  -->
<!DOCTYPE svg PUBLIC "-//W3C//DTD SVG 1.1//EN" "http://www.w3.org/Graphics/SVG/1.1/DTD/svg11.dtd" [
	<!ENTITY ns_flows "http://ns.adobe.com/Flows/1.0/">
]>
<svg version="1.1"
	 xmlns="http://www.w3.org/2000/svg" xmlns:xlink="http://www.w3.org/1999/xlink" xmlns:a="http://ns.adobe.com/AdobeSVGViewerExtensions/3.0/"
	 x="0px" y="0px" width="100px" height="100px" viewBox="-1.97 -15.089 100 100" enable-background="new -1.97 -15.089 100 100"
	 xml:space="preserve">
<defs>
</defs>
<rect x="12.465" y="18.56" width="15.927" height="6.651"/>
<rect x="12.465" y="30.93" width="15.927" height="6.653"/>
<rect x="67.922" y="22.638" width="6.65" height="6.651"/>
<rect x="83.715" y="29.173" transform="matrix(-0.7071 0.7071 -0.7071 -0.7071 171.5682 -6.0688)" width="6.651" height="6.651"/>
<rect x="51.872" y="29.173" transform="matrix(-0.7071 0.7071 -0.7071 -0.7071 117.2084 16.4478)" width="6.651" height="6.652"/>
<rect x="45.216" y="44.856" width="7.036" height="7.036"/>
<rect x="89.997" y="44.856" width="7.033" height="7.036"/>
<path d="M37.342,40.676c1.837,0,3.325-1.488,3.325-3.325V12.61c0-3.305,2.68-5.984,5.985-5.984h21.373v10.883h6.65V0
	H46.627c-3.532,0.006-6.899,1.491-9.285,4.096C34.959,1.492,31.596,0.007,28.066,0H0v56.143h28.066c0.613,0,1.223,0.065,1.822,0.195
	c0.179,0,0.341,0.103,0.513,0.145c0.38,0.1,0.754,0.223,1.12,0.368l0.402,0.196l0.222,0.104c0.34,0.156,0.668,0.335,0.983,0.538
	c0.171,0.112,0.342,0.223,0.513,0.35c0.43,0.327,0.828,0.693,1.187,1.095l0.069,0.06l0.291,0.291
	c0.162,0.127,0.337,0.235,0.521,0.326c0.129,0.096,0.266,0.179,0.41,0.247c0.398,0.179,0.829,0.275,1.265,0.283
	c0.44-0.008,0.874-0.104,1.274-0.283c0.144-0.072,0.282-0.154,0.411-0.247c0.184-0.093,0.358-0.201,0.521-0.326l0.291-0.291
	l0.068-0.06c0.281-0.308,0.587-0.594,0.915-0.855v-7.616c-1.249,0.482-2.433,1.119-3.522,1.897c-1.45-1.042-3.066-1.834-4.779-2.343
	l-0.18-0.059l0,0c-0.817-0.235-1.652-0.404-2.496-0.506l0,0l-0.719-0.051c-0.359-0.05-0.722-0.079-1.085-0.086H6.625V21.398l0,0
	V6.652h21.373c3.306,0,5.984,2.679,5.984,5.983v24.741C34.001,39.213,35.504,40.689,37.342,40.676z"/>
<rect x="51.879" y="60.846" transform="matrix(-0.707 0.7072 -0.7072 -0.707 139.6172 70.504)" width="6.652" height="6.653"/>
<rect x="83.723" y="60.846" transform="matrix(-0.707 0.7073 -0.7073 -0.707 193.9738 47.9736)" width="6.651" height="6.652"/>
<path d="M71.247,32.896c-8.53,0.04-15.417,6.986-15.376,15.517c0.025,5.969,3.486,11.385,8.889,13.918v2.129
	c0.13,3.572,3.129,6.361,6.701,6.231c3.391-0.123,6.108-2.841,6.231-6.231v-2.129c7.725-3.622,11.051-12.821,7.429-20.547
	C82.595,36.397,77.198,32.94,71.247,32.896z M71.956,58.229v6.266c0,0.778-1.418,0.778-1.418,0v-6.266l-2.069-0.608
	c-5.13-1.533-8.047-6.934-6.515-12.063c1.532-5.131,6.934-8.048,12.063-6.516c5.131,1.533,8.048,6.934,6.516,12.064
	c-0.937,3.131-3.384,5.58-6.516,6.515L71.956,58.229z"/>
</svg>
