<?xml version="1.0" encoding="utf-8"?>
<!-- Generator: Adobe Illustrator 15.0.0, SVG Export Plug-In  -->
<!DOCTYPE svg PUBLIC "-//W3C//DTD SVG 1.1//EN" "http://www.w3.org/Graphics/SVG/1.1/DTD/svg11.dtd" [
	<!ENTITY ns_flows "http://ns.adobe.com/Flows/1.0/">
]>
<svg version="1.1"
	 xmlns="http://www.w3.org/2000/svg" xmlns:xlink="http://www.w3.org/1999/xlink" xmlns:a="http://ns.adobe.com/AdobeSVGViewerExtensions/3.0/"
	 x="0px" y="0px" width="100px" height="100px" viewBox="-3.966 -9.705 100 100" enable-background="new -3.966 -9.705 100 100"
	 xml:space="preserve">
<defs>
</defs>
<path d="M30.685,15.342C30.685,6.869,23.815,0,15.342,0S0,6.869,0,15.342s6.869,15.342,15.342,15.342
	c0.003,0,0.006,0,0.011,0C23.819,30.672,30.678,23.809,30.685,15.342z M7.677,15.342c-0.006-4.239,3.426-7.681,7.666-7.686
	c4.239-0.007,7.681,3.426,7.686,7.666c0.007,4.239-3.426,7.681-7.666,7.686c-0.003,0-0.006,0-0.01,0
	C11.118,23.008,7.682,19.578,7.677,15.342z M76.729,0c-8.473-0.005-15.347,6.858-15.351,15.332
	c-0.007,8.473,6.858,15.346,15.331,15.353c8.474,0.006,15.347-6.858,15.354-15.331c0-0.003,0-0.008,0-0.011
	C92.056,6.875,85.198,0.012,76.729,0z M76.729,23.008c-4.232,0-7.664-3.432-7.664-7.666s3.432-7.666,7.664-7.666
	c4.234,0,7.667,3.433,7.667,7.666l0,0C84.389,19.573,80.961,23.002,76.729,23.008z M23.018,61.389h-7.697v-23.07H7.655v23.07
	c0,4.234,3.43,7.671,7.666,7.675h7.698V80.6h7.655V69.064C30.674,64.833,27.25,61.4,23.018,61.389L23.018,61.389z M76.72,61.389
	H65.185c-4.236,0.007-7.671,3.438-7.678,7.675V80.6h7.656V69.064h11.535c4.237-0.004,7.669-3.438,7.678-7.675v-23.07h-7.678
	L76.72,61.389z M22.966,53.722h46.047v-7.675H22.966V53.722z"/>
</svg>
