<?xml version="1.0" encoding="utf-8"?>
<!-- Generator: Adobe Illustrator 15.0.0, SVG Export Plug-In . SVG Version: 6.00 Build 0)  -->
<!DOCTYPE svg PUBLIC "-//W3C//DTD SVG 1.1//EN" "http://www.w3.org/Graphics/SVG/1.1/DTD/svg11.dtd">
<svg version="1.1" id="Warstwa_1" xmlns="http://www.w3.org/2000/svg" xmlns:xlink="http://www.w3.org/1999/xlink" x="0px" y="0px"
	 width="100px" height="100px" viewBox="-331.5 386.5 100 100" enable-background="new -331.5 386.5 100 100" xml:space="preserve">
<title>biologia</title>
<path d="M-246.86,425.053c0.234-1.447,0.366-3.114,0.366-4.812c0-0.003,0-0.003,0-0.003c0-18.147-14.708-32.858-32.855-32.858
	c-17.886,0-32.436,14.288-32.85,32.079c-10.569,3.688-18.024,13.551-18.024,25.153c0,14.646,11.872,26.515,26.513,26.515
	c3.448,0,6.741-0.659,9.761-1.855c1.351-0.543,2.414-2.012,2.414-3.727c0-2.249-1.82-4.065-4.068-4.065
	c-0.531,0-1.037,0.099-1.5,0.281c-1.946,0.78-4.233,1.238-6.628,1.238c-10.148,0-18.377-8.227-18.377-18.375
	c0-8.904,6.331-16.33,14.74-18.018c2.007-0.396,3.41-2.045,3.41-4.012c0-0.114-0.006-0.228-0.012-0.336
	c-0.052-0.659-0.104-1.331-0.104-2.021c0-0.03,0-0.061,0-0.096c0-13.653,11.07-24.726,24.726-24.726
	c13.656,0,24.725,11.072,24.725,24.726c0,2.26-0.306,4.449-0.87,6.526c-0.045,0.135-0.09,0.488-0.09,0.852
	c0,1.793,1.157,3.313,2.764,3.858c6.758,2.272,11.516,8.526,11.516,15.89c0,9.234-7.486,16.723-16.72,16.723
	c-1.895,0-3.711-0.312-5.412-0.893c-0.267-0.1-0.71-0.174-1.172-0.174c-2.249,0-4.065,1.819-4.065,4.064
	c0,1.781,1.151,3.298,2.749,3.844c2.383,0.824,5.094,1.295,7.918,1.295c13.731,0,24.86-11.128,24.86-24.856
	c0-9.663-5.517-18.042-13.572-22.152L-246.86,425.053z M-264.336,439.594c0.501-0.372,0.825-0.966,0.825-1.631
	c0-1.128-0.912-2.039-2.039-2.039c-0.456,0-0.875,0.15-1.214,0.408l-10.916,8.082v-17.676c0-1.125-0.911-2.033-2.033-2.033
	c-1.121,0-2.033,0.908-2.033,2.033v28.838l-18.024-11.6c-0.309-0.201-0.69-0.32-1.099-0.32c-1.123,0-2.033,0.908-2.033,2.032
	c0,0.717,0.369,1.34,0.925,1.703l20.23,13.018v23.175c0,1.124,0.909,2.032,2.033,2.032c1.125,0,2.033-0.908,2.033-2.032v-34.115
	L-264.336,439.594z"/>
</svg>
