<?xml version="1.0" encoding="utf-8"?>
<!-- Generator: Adobe Illustrator 15.1.0, SVG Export Plug-In  -->
<!DOCTYPE svg PUBLIC "-//W3C//DTD SVG 1.1//EN" "http://www.w3.org/Graphics/SVG/1.1/DTD/svg11.dtd" [
	<!ENTITY ns_flows "http://ns.adobe.com/Flows/1.0/">
]>
<svg version="1.1"
	 xmlns="http://www.w3.org/2000/svg" xmlns:xlink="http://www.w3.org/1999/xlink" xmlns:a="http://ns.adobe.com/AdobeSVGViewerExtensions/3.0/"
	 x="0px" y="0px" width="100px" height="100px" viewBox="-2.191 0 100 100" enable-background="new -2.191 0 100 100"
	 xml:space="preserve">
<defs>
</defs>
<path d="M93.99,24.364C92.264,21.455,88.218,18,78.99,18c-8.783,0.409-17.428,2.347-25.545,5.727
	c2.605,1.243,5.197,2.561,7.772,3.955l2.5,1.409c4.985-1.618,10.171-2.536,15.409-2.727c3.863,0,6.682,0.818,7.5,2.182
	c2.682,4.545-8.682,19.773-31.818,32.681c-13.636,7.637-28.364,12.41-37.909,12.41c-3.864,0-6.636-0.818-7.5-2.182
	c-1.772-2.955,2.682-10.729,12.728-19.41c0-0.682,0-1.363,0-2.045c0-3.045,0-6.045,0.363-9.091
	c-16,11.636-26.5,25.317-20.863,34.728C3.399,78.545,7.399,82,16.627,82c11.182,0,26.955-5.091,42.272-13.637
	C81.899,55.682,101.264,36.364,93.99,24.364z M14.672,41.318c-4.955-5.728-6.864-10.5-5.5-12.773
	c0.863-1.455,3.818-2.318,7.818-2.318c2.333,0.044,4.658,0.272,6.955,0.682c0.545-2.818,1.273-5.545,2.045-8.136
	c-2.996-0.578-6.039-0.882-9.091-0.909c-9.409,0-13.636,3.545-15.318,6.545c-3.773,6.318-0.5,14.455,6.682,22.727
	C10.309,45.091,12.399,43.182,14.672,41.318z M68.264,47.136c2.454-2,4.545-3.909,6.408-5.682
	c-4.915-3.748-10.096-7.136-15.5-10.136c-5.307-2.956-10.821-5.523-16.5-7.682c-0.818,2.685-1.47,5.417-1.955,8.182
	c4.761,1.958,9.405,4.189,13.909,6.682C59.363,41.064,63.92,43.95,68.264,47.136z M87.399,52.955
	c-1.954,1.954-4.046,3.863-6.317,5.727c4.953,5.728,6.863,10.5,5.5,12.773c-0.864,1.454-3.818,2.318-7.818,2.318
	c-2.333-0.045-4.658-0.272-6.955-0.683c-0.525,2.749-1.209,5.466-2.045,8.136c2.996,0.578,6.039,0.883,9.09,0.91
	c9.41,0,13.637-3.546,15.318-6.546c3.592-6.317,0.273-14.454-6.908-22.636H87.399z M35.854,65.137
	C35.158,60.121,34.808,55.063,34.809,50c0-25.045,7.818-41.682,13-41.682c2.409,0,5.455,3.727,7.955,10.182
	c2.863-1,5.636-1.773,8.363-2.455C60.445,6.455,54.99,0,47.809,0C33.582,0,26.127,25.136,26.127,50
	c-0.033,5.946,0.377,11.887,1.227,17.773C30.232,67.045,33.069,66.165,35.854,65.137z M58.218,73.5
	c-2.728,11.409-7.091,18.182-10.409,18.182c-2.409,0-5.409-3.727-7.909-10.227c-2.864,1-5.682,1.863-8.364,2.545
	c3.637,9.545,9.091,16,16.273,16c10.773,0,17.637-14.409,20.363-32.227c-2.318,1.5-4.545,2.908-7.137,4.271L58.218,73.5z M43.49,50
	c-0.198,2.502,1.67,4.691,4.173,4.891c2.503,0.197,4.692-1.671,4.89-4.174c0.198-2.502-1.67-4.691-4.172-4.89
	c-0.191-0.015-0.382-0.018-0.572-0.009c-2.334-0.05-4.267,1.801-4.317,4.135C43.491,49.969,43.491,49.984,43.49,50z"/>
</svg>
