<?xml version="1.0" encoding="utf-8"?>
<!-- Generator: Adobe Illustrator 15.1.0, SVG Export Plug-In  -->
<!DOCTYPE svg PUBLIC "-//W3C//DTD SVG 1.1//EN" "http://www.w3.org/Graphics/SVG/1.1/DTD/svg11.dtd" [
	<!ENTITY ns_flows "http://ns.adobe.com/Flows/1.0/">
]>
<svg version="1.1"
	 xmlns="http://www.w3.org/2000/svg" xmlns:xlink="http://www.w3.org/1999/xlink" xmlns:a="http://ns.adobe.com/AdobeSVGViewerExtensions/3.0/"
	 x="0px" y="0px" width="100px" height="100px" viewBox="-6.522 0.02 100 100" enable-background="new -6.522 0.02 100 100"
	 xml:space="preserve">
<defs>
</defs>
<path d="M41.174,20.846c2.397,0.144,4.457-1.682,4.601-4.079c0.005-0.089,0.008-0.179,0.008-0.269
	c0.004-2.401-1.939-4.352-4.34-4.356c-0.09,0-0.179,0.002-0.269,0.008c-2.398-0.12-4.44,1.727-4.56,4.125
	c-0.003,0.074-0.005,0.148-0.005,0.223c-0.003,2.401,1.941,4.35,4.342,4.353C41.025,20.851,41.1,20.849,41.174,20.846z
	 M54.913,52.977V37.541h4.349v-4.348c0-2.401-1.947-4.348-4.349-4.348h-4.565c-2.398-0.12-4.439,1.727-4.56,4.125
	c-0.003,0.074-0.005,0.148-0.005,0.223V54.02c-0.004,0.793,0.239,1.568,0.695,2.217l22.174,32.305v2.957H9.174v-2.783l22.174-32.174
	c0.429-0.662,0.669-1.429,0.696-2.217V33.367c0-2.401-1.947-4.348-4.348-4.348h-4.826c-2.401,0-4.348,1.947-4.348,4.348v4.348h4.348
	V53.15L0.695,85.324C0.251,85.979,0.01,86.75,0,87.541v8.131c-0.003,2.4,1.941,4.35,4.342,4.354c0.074,0,0.148-0.002,0.223-0.006
	h68.652c2.397,0.12,4.439-1.727,4.56-4.125c0.004-0.074,0.006-0.148,0.006-0.223v-8.131c0.01-0.794-0.234-1.57-0.695-2.217
	L54.913,52.977z M73.217,0.02c-7.193-0.39-13.341,5.126-13.729,12.319c-0.004,0.068-0.008,0.135-0.01,0.203
	c0.302,7.198,6.381,12.788,13.578,12.486c0.054-0.002,0.107-0.005,0.161-0.008c7.192,0.391,13.341-5.124,13.731-12.317
	c0.003-0.054,0.006-0.107,0.008-0.161C86.679,5.343,80.619-0.268,73.419,0.01C73.352,0.013,73.285,0.016,73.217,0.02z
	 M73.217,16.672c-2.398,0.12-4.44-1.727-4.56-4.125c-0.004-0.074-0.006-0.148-0.006-0.223c0.002-2.521,2.047-4.563,4.568-4.562
	c2.52,0.002,4.561,2.043,4.563,4.562c0.002,2.401-1.941,4.351-4.343,4.354C73.366,16.677,73.292,16.675,73.217,16.672z"/>
</svg>
