<?xml version="1.0" encoding="utf-8"?>
<!-- Generator: Adobe Illustrator 15.1.0, SVG Export Plug-In  -->
<!DOCTYPE svg PUBLIC "-//W3C//DTD SVG 1.1//EN" "http://www.w3.org/Graphics/SVG/1.1/DTD/svg11.dtd" [
	<!ENTITY ns_flows "http://ns.adobe.com/Flows/1.0/">
]>
<svg version="1.1"
	 xmlns="http://www.w3.org/2000/svg" xmlns:xlink="http://www.w3.org/1999/xlink" xmlns:a="http://ns.adobe.com/AdobeSVGViewerExtensions/3.0/"
	 x="0px" y="0px" width="100px" height="100px" viewBox="0 0 100 100" enable-background="new 0 0 100 100" xml:space="preserve">
<defs>
</defs>
<path d="M16.667,0C7.462,0,0,7.462,0,16.667c0,9.205,7.462,16.667,16.667,16.667c9.205,0,16.667-7.462,16.667-16.667
	C33.333,7.462,25.872,0,16.667,0z M16.667,25c-4.602,0-8.333-3.731-8.333-8.333c0-4.602,3.731-8.333,8.333-8.333
	c4.603,0,8.333,3.731,8.333,8.333C25,21.269,21.269,25,16.667,25z M16.667,37.476c-6.89,0-12.476,5.586-12.476,12.476
	c0,0.016,0,0.032,0,0.048v41.666h8.333V50c-0.247-2.301,1.419-4.366,3.721-4.613c2.301-0.246,4.366,1.419,4.612,3.721
	c0.032,0.296,0.032,0.596,0,0.892v41.666h8.333V50C29.19,43.083,23.583,37.476,16.667,37.476L16.667,37.476z M83.334,33.333
	c9.204,0,16.666-7.462,16.666-16.667C100,7.462,92.538,0,83.334,0c-9.205,0-16.668,7.462-16.668,16.667
	C66.666,25.872,74.129,33.333,83.334,33.333z M83.334,8.333c4.602,0,8.332,3.731,8.332,8.333c0,4.603-3.73,8.333-8.332,8.333
	C78.73,25,75,21.269,75,16.667C75,12.064,78.73,8.333,83.334,8.333z M83.334,37.476c-6.891,0-12.477,5.586-12.477,12.476
	c0,0.016,0,0.032,0,0.048v41.666h8.333V50c-0.246-2.301,1.419-4.366,3.721-4.613c2.302-0.246,4.366,1.419,4.612,3.721
	c0.032,0.296,0.032,0.596,0,0.892v41.666h8.334V50C95.857,43.083,90.25,37.476,83.334,37.476L83.334,37.476z M50,16.667
	c-9.205,0-16.667,7.462-16.667,16.667C33.333,42.538,40.795,50,50,50c9.205,0,16.666-7.462,16.666-16.667
	C66.666,24.128,59.205,16.667,50,16.667z M50,41.619c-4.603,0-8.333-3.731-8.333-8.333c0-4.603,3.731-8.333,8.333-8.333
	c4.602,0,8.333,3.731,8.333,8.333c0,0.016,0,0.032,0,0.048C58.307,37.917,54.584,41.619,50,41.619z M50,54.143
	c-6.917,0-12.524,5.607-12.524,12.523l0,0V100h8.381V66.666c-0.246-2.301,1.419-4.365,3.721-4.612
	c2.301-0.246,4.367,1.419,4.613,3.721c0.032,0.297,0.032,0.596,0,0.892V100h8.333V66.666C62.523,59.75,56.916,54.143,50,54.143
	L50,54.143z" />
</svg>
